<svg width="882" height="238" viewBox="0 0 882 238" fill="none" xmlns="http://www.w3.org/2000/svg">
<g filter="url(#filter0_d_26_200)">
<path d="M669.083 305.902C770.3 359.213 899.356 287.397 951.231 244.825C979.431 218.136 1026.19 161.025 997.5 72.5C967.257 -20.8054 852.5 6.50046 805.449 50.1261C714.5 -24.4996 570.5 -8.49953 498.5 84.0005C395.5 32.0004 305 90.0004 271.5 158.5C109.775 100.025 -103.185 330.51 64.6479 435.403C198.914 519.318 344.452 428.335 400.438 372.354C502.507 434.239 622.063 353.838 669.083 305.902Z" fill="white"/>
<path d="M669.083 305.902C770.3 359.213 899.356 287.397 951.231 244.825C979.431 218.136 1026.19 161.025 997.5 72.5C967.257 -20.8054 852.5 6.50046 805.449 50.1261C714.5 -24.4996 570.5 -8.49953 498.5 84.0005C395.5 32.0004 305 90.0004 271.5 158.5C109.775 100.025 -103.185 330.51 64.6479 435.403C198.914 519.318 344.452 428.335 400.438 372.354C502.507 434.239 622.063 353.838 669.083 305.902Z" stroke="#212121" stroke-width="6"/>
</g>
<defs>
<filter id="filter0_d_26_200" x="0.367065" y="0.00164795" width="1015.12" height="478.399" filterUnits="userSpaceOnUse" color-interpolation-filters="sRGB">
<feFlood flood-opacity="0" result="BackgroundImageFix"/>
<feColorMatrix in="SourceAlpha" type="matrix" values="0 0 0 0 0 0 0 0 0 0 0 0 0 0 0 0 0 0 127 0" result="hardAlpha"/>
<feOffset dx="6" dy="6"/>
<feComposite in2="hardAlpha" operator="out"/>
<feColorMatrix type="matrix" values="0 0 0 0 0.129412 0 0 0 0 0.129412 0 0 0 0 0.129412 0 0 0 1 0"/>
<feBlend mode="normal" in2="BackgroundImageFix" result="effect1_dropShadow_26_200"/>
<feBlend mode="normal" in="SourceGraphic" in2="effect1_dropShadow_26_200" result="shape"/>
</filter>
</defs>
</svg>
