<?xml version="1.0" encoding="UTF-8"?><svg id="uuid-fc46c390-78aa-4a79-b2c9-5036f93bca3f" xmlns="http://www.w3.org/2000/svg" viewBox="0 0 458.43 484.74"><defs><style>.uuid-2dbdfdd1-ea19-4b44-9e5b-bae0782115b9{fill:#fff;}.uuid-8b767906-2ab1-4bcb-afa5-4b8b78944047{fill:#212121;}</style></defs><g id="uuid-d2eb6c3f-43f4-4256-85d9-00308f82678b"><path class="uuid-8b767906-2ab1-4bcb-afa5-4b8b78944047" d="m451.6,6.83c-1.65-4.01-5.58-6.83-10.19-6.83H64.83c-.24,0-.47.02-.7.04-.14,0-.29,0-.43.02-.06,0-.11.02-.17.03-4,.47-7.34,3.07-8.85,6.64-.56,1.32-.88,2.78-.88,4.3v55.56c0,1.8-.43,3.52-1.21,5.04-.82,1.58-2.01,2.95-3.49,3.98-.89.62-1.87,1.12-2.95,1.47l-38.51,12.37c-.31.1-.62.21-.92.34-.12.05-.23.1-.34.16-.17.08-.34.15-.5.24-.17.08-.32.18-.48.27-.1.06-.21.11-.31.18-.17.11-.34.22-.51.34-.08.06-.16.11-.24.17-.16.12-.31.24-.46.37-.08.07-.16.13-.24.2-.13.11-.25.23-.37.35-.1.1-.2.19-.29.29-.09.09-.17.19-.25.28-.12.14-.25.28-.36.43-.04.05-.08.11-.13.16-.15.2-.29.39-.43.6,0,0,0,0,0,.01-1.22,1.84-1.87,4.06-1.8,6.47.06,1.75.5,3.39,1.24,4.83.02.04.04.07.06.11.1.18.2.36.31.54.05.09.11.17.16.26.08.12.16.24.25.36.1.14.2.27.3.41.05.06.1.13.15.19.15.18.3.35.46.52.01.02.03.03.04.04,1.01,1.07,2.29,1.94,3.81,2.55.14.35.29.68.46,1.01.02.04.04.07.06.11.1.18.2.36.31.54.05.09.11.17.16.26.08.12.16.24.25.36.1.14.2.27.3.41.05.06.1.13.15.19.15.18.3.35.46.52.01.02.03.03.04.04,1.15,1.21,2.62,2.19,4.42,2.8.04.01.08.02.11.03.26.08.51.16.78.23l37.21,9.47c.51.13.99.3,1.47.5.53,1.3.83,2.71.83,4.18v336.96c0,1.14.18,2.25.5,3.28.97,3.14,3.32,5.68,6.33,6.92,1.65,4.01,5.58,6.83,10.19,6.83h376.58c6.09,0,11.02-4.93,11.02-11.02h0V17.02h0c0-4.61-2.82-8.54-6.83-10.19Z"/><path class="uuid-2dbdfdd1-ea19-4b44-9e5b-bae0782115b9" d="m64.82,472.74h376.58c2.76,0,5.01-2.25,5.01-5.01V11.02c0-2.76-2.25-5.01-5.01-5.01H64.82c-2.76,0-5.01,2.25-5.01,5.01v55.57c0,7.42-4.75,13.94-11.82,16.21l-38.51,12.37c-2.65.85-3.53,3.1-3.47,4.92.06,1.82,1.08,4.01,3.77,4.7l37.2,9.47c7.55,1.92,12.83,8.71,12.83,16.5v336.97c0,2.76,2.25,5.01,5.01,5.01Z"/></g></svg>
