<svg width="98" height="41" viewBox="0 0 98 41" fill="none" xmlns="http://www.w3.org/2000/svg">
<path d="M12.2169 26.7015C7.9177 26.7015 2.24232 20.6335 2.39842 16.4188C2.46136 14.7194 6.75513 14.3087 8.03879 14.3762C11.3423 14.5501 10.9081 21.1374 10.7545 16.8366C10.6283 13.3015 16.88 9.70563 17.9037 14.0048C18.5855 16.8686 18.3323 19.2302 16.5574 21.6878C15.8787 22.6275 14.6668 27.5656 14.3059 27.746" stroke="white" stroke-width="3" stroke-linecap="round"/>
<path d="M45.2237 16.6742C43.1147 14.3308 35.4379 2.05395 43.1811 2.46877C46.183 2.62958 48.775 4.31559 48.775 7.37798C48.775 8.77679 50.2376 4.84739 51.4443 4.13999C56.8535 0.969075 60.5994 7.84123 57.34 12.0319C54.1421 16.1435 49.0596 16.2185 44.8059 18.3454" stroke="white" stroke-width="3" stroke-linecap="round"/>
<path d="M81.3638 37.1467C79.7641 37.1467 77.3499 20.1767 87.0042 24.6125C88.9673 25.5144 91.0639 26.5284 90.0217 29.2084C89.1203 31.5262 88.3412 31.7612 90.8573 30.16C94.943 27.56 97.7125 34.1652 94.1185 36.636C92.2319 37.933 82.0849 40.5633 80.946 37.1467" stroke="white" stroke-width="3" stroke-linecap="round"/>
</svg>
