<svg width="86" height="36" viewBox="0 0 86 36" fill="none" xmlns="http://www.w3.org/2000/svg">
<path d="M9.65064 23.0959C7.10209 21.8216 -2.25654 9.40203 4.46918 9.57902C10.7748 9.74496 11.6782 18.1696 11.6782 22.8706" stroke="white" stroke-width="3" stroke-linecap="round"/>
<path d="M13.7057 27.8265C10.1357 27.3803 11.9786 31.8507 15.2826 31.6563C17.2683 31.5395 14.8421 27.376 13.0298 27.376" stroke="white" stroke-width="3" stroke-linecap="round"/>
<path d="M47.0473 16.788C45.7774 16.6292 42.0784 8.19175 41.5279 6.65034C40.7021 4.3381 42.7373 2.71638 44.6943 2.15723C49.337 0.830768 50.6517 7.68485 50.6517 10.9307C50.6517 13.357 49.0335 19.8593 47.9484 17.6891" stroke="white" stroke-width="3" stroke-linecap="round"/>
<path d="M49.5254 25.3485C45.977 23.6787 44.6646 28.9367 48.7369 29.8416C51.7883 30.5197 48.89 25.4295 48.6243 24.8979" stroke="white" stroke-width="3" stroke-linecap="round"/>
<path d="M73.6304 22.42C73.6304 18.4645 75.0247 5.96328 80.8519 9.24107C83.2682 10.6002 84.4057 13.8081 82.8669 16.2874C81.2446 18.901 80.2914 21.0354 76.8344 21.7942C75.961 21.9859 74.2821 22.4683 73.8557 23.3211" stroke="white" stroke-width="3" stroke-linecap="round"/>
<path d="M70.7018 29.4036C61.0069 29.4036 76.4675 39.8085 71.3776 29.6288" stroke="white" stroke-width="3" stroke-linecap="round"/>
</svg>
