<svg width="90" height="36" viewBox="0 0 90 36" fill="none" xmlns="http://www.w3.org/2000/svg">
<path d="M7.43682 24.347C7.43682 19.4319 7.45647 16.2988 11.6227 20.6843C14.2022 23.3996 14.2494 21.5564 17.3783 21.5564C18.596 21.5564 19.7212 21.2712 20.8665 21.2076C23.1697 21.0796 20.9063 22.0429 20.2076 23.3005C19.2904 24.9515 17.0295 26.4275 17.0295 28.3584C17.0295 29.5993 17.9197 34.3609 16.6419 33.9009C14.2778 33.0498 11.9228 30.0708 9.35535 29.9281C7.27532 29.8126 2.12574 30.7045 2.37888 30.4514C3.7173 29.113 6.67802 26.2134 7.43682 24.6958" stroke="white" stroke-width="3" stroke-linecap="round"/>
<path d="M39.7031 9.52185C39.7031 8.83314 41.1003 2.43839 41.36 2.38067C43.4417 1.91807 44.9217 7.16336 46.4277 7.59364C48.3761 8.15034 50.931 7.2545 52.8712 7.2545C56.6513 7.2545 50.8527 10.9828 49.4799 11.4404C43.7357 13.3551 48.9408 25.6169 41.4472 14.793C40.4038 13.2857 35.7613 13.4377 33.9475 12.9713C32.1864 12.5185 38.0787 10.5866 39.1799 10.2195" stroke="white" stroke-width="3" stroke-linecap="round"/>
<path d="M74.7381 17.4455C73.3453 16.3059 72.1732 14.8242 70.9358 13.5107C70.6045 13.159 69.332 12.2113 70.2916 12.2113C71.1868 12.2113 72.0928 12.1702 72.986 12.2261C74.2101 12.3026 76.6439 13.021 77.7969 12.5021C79.2743 11.8373 80.6554 10.6273 81.8863 9.60161C82.243 9.30436 84.6173 7.38164 84.4776 7.88266C84.0541 9.40235 83.7093 10.9391 83.3513 12.4764C82.6599 15.4451 84.8586 16.7752 86.9585 18.4356C89.5031 20.4476 85.5719 19.4994 84.0433 19.4994C81.068 19.4994 80.484 20.1379 78.0509 21.6711C77.1414 22.2442 76.2712 23.0735 75.2681 23.4747C74.6017 23.7413 74.7628 22.6643 74.6424 22.0797C74.3019 20.4257 73.9911 19.5541 74.4731 18.108" stroke="white" stroke-width="3" stroke-linecap="round"/>
</svg>
