<?xml version="1.0" encoding="UTF-8"?><svg id="uuid-98eb0082-17b6-4529-ace4-0f47cbda57fc" xmlns="http://www.w3.org/2000/svg" viewBox="0 0 57.73 40.7"><defs><style>.uuid-05dff492-76ed-4803-9b8d-2ad87ee5bac1{fill:#fff;fill-rule:evenodd;}.uuid-fc7d7044-c7ba-4500-acf3-44ec91620c06{fill:#212121;}</style></defs><g id="uuid-36e1773f-881d-4843-9f72-09b71d18a93e"><path class="uuid-fc7d7044-c7ba-4500-acf3-44ec91620c06" d="m57.67,24.48c-.35-3.87-2.18-7.38-5.17-9.87-.39-.33-.8-.63-1.22-.91-.77-1.14-1.69-2.18-2.78-3.09-2.99-2.49-6.77-3.67-10.64-3.33l-9.35.84c-.43-.95-1.07-1.8-1.89-2.49-.6-.5-1.26-.88-1.95-1.15-.42-1.1-1.12-2.08-2.05-2.85-2.97-2.48-7.4-2.08-9.88.88L0,17.71l4.33,3.61-.33.39,15.23,12.7c2.97,2.48,7.4,2.08,9.88-.88.06-.08.12-.16.18-.24.4.67.91,1.27,1.52,1.78.59.49,1.25.87,1.95,1.14.42,1.1,1.12,2.08,2.05,2.86,1.27,1.06,2.85,1.63,4.49,1.63.21,0,.43,0,.64-.03l4.51-.4c8-.72,13.93-7.8,13.22-15.79Z"/><path class="uuid-05dff492-76ed-4803-9b8d-2ad87ee5bac1" d="m15.8,5.08l-10.16,12.13,12.15,10.13c1.28,1.07,3.19.9,4.26-.38,1.07-1.28.9-3.18-.38-4.25l-4.24-3.53,21.32-1.91c2.49-.22,4.69,1.61,4.92,4.1.22,2.49-1.62,4.68-4.11,4.91l-4.51.4c-1.66.15-2.89,1.61-2.74,3.27.15,1.66,1.62,2.88,3.28,2.73l4.51-.4c5.82-.52,10.11-5.65,9.59-11.45-.52-5.8-5.65-10.09-11.47-9.57l-21.32,1.91,3.54-4.23c1.07-1.28.9-3.18-.38-4.25-1.28-1.07-3.19-.9-4.26.38Z"/></g></svg>
