<?xml version="1.0" encoding="UTF-8"?><svg id="uuid-1020aba3-cab4-45a3-9850-c28578db4f5a" xmlns="http://www.w3.org/2000/svg" viewBox="0 0 1358.59 212.14"><defs><style>.uuid-3002b7fb-112d-4cfc-b232-15683d5571a9{fill:#fff;}.uuid-284c50af-cdae-4889-b0a9-664c7b1b0cff{fill:#212121;}.uuid-2326804a-4faf-44d9-ae55-768e9cf594a6{fill:#496eb5;}</style></defs><g id="uuid-2473a220-95e8-4897-b7de-1140cae5f766"><g><g><path class="uuid-3002b7fb-112d-4cfc-b232-15683d5571a9" d="m218.25,40.7l-2.5-.2c-.89-.07-1.8-.11-2.69-.11s-1.8.04-2.6.1c-8.93.45-17.76,3.02-25.62,7.47-.26.16-.55.24-.85.24-.22,0-.43-.04-.63-.13-.46-.19-.81-.58-.95-1.05-.07-.4-.11-.81-.12-1.27-.09-1.84-.21-3.25-.36-4.31l-.34-2.41-2.43-.17c-3.22-.22-6.48-.34-9.71-.34-4.77,0-9.58.25-14.32.74l-2.51.26-.17,2.52c-.11,1.58-.13,3.2-.06,4.79.58,13.87,1.14,27.93,1.7,41.99l.63,15.82c.35,8.91.71,17.79,1.07,26.6v.46c.07,1.35.21,2.71.42,4.04l.37,2.37,2.39.16c2.69.17,5.42.26,8.12.26,5.31,0,10.67-.34,15.94-1.02l2.47-.32.15-2.49c.09-1.53.09-3.08,0-4.54-.24-6.67-.53-13.83-.83-21.04l-.13-3.21c-.33-8.05-.65-16.11-.91-23.42-.02-.43.15-.86.44-1.18.3-.32.71-.51,1.15-.52,1.26,0,2.52.12,3.83.36l3.1.52.78-2.49c.11-.34.24-.68.38-1.01l.07-.16.05-.17c.06-.19.13-.38.2-.55,3.24-6.17,9.02-10.48,15.86-11.82l.14-.03.14-.04c1.08-.32,2.19-.55,3.33-.71.38-.05,1.69-.25,2.81-.51l2.09-.48.22-2.13c.64-6.1.67-12.29.09-18.39l-.24-2.5Z"/><path class="uuid-2326804a-4faf-44d9-ae55-768e9cf594a6" d="m942.67,105.77l-1.45-1.34-1.8.81c-1.04.47-2.07,1-3.07,1.58l-1.85.98-.09.06c-4.75,2.99-10.2,4.95-15.76,5.67-.07,0-.14,0-.21,0-1.42,0-2.75-.55-3.76-1.54-1.08-1.06-1.66-2.53-1.6-4.02l2.01-44.1c.03-.72.51-1.32,1.15-1.5.49-.07,2.58-.37,4.55-.62,1.72-.22,3.38-.43,3.62-.47,1.46-.19,3.06-.47,4.29-.75l2.25-.51.09-2.3c.22-5.93-.18-11.9-1.21-17.74l-.41-2.35-2.38-.13c-1.08-.06-2.08-.09-2.97-.09-.43,0-.87,0-1.26.02l-4.84.15c-.4,0-.78-.16-1.1-.51-.32-.32-.49-.77-.47-1.22l.97-21.52c.07-1.21.07-2.63,0-3.87l-.15-2.46-2.44-.34c-6.66-.92-13.44-1.39-20.16-1.39-1.24,0-2.48.02-3.72.05l-2.57.07-.33,2.54c-.19,1.44-.3,2.9-.33,4.32l-.65,23.42c-.02.87-.72,1.58-1.59,1.6-.57.02-2.17.05-3.94.09l-6.09.13c-1.06.02-2.32.11-3.44.23l-2.6.29-.07,2.62c-.21,7.81.21,15.7,1.24,23.46l.35,2.67,2.69-.07c1.26-.03,2.7-.14,3.95-.31l6.77-.89c.08,0,.16-.01.23-.01.41,0,.8.15,1.11.42.36.32.56.79.54,1.27l-.12,4.3c-.35,12.43-.71,25.29-.99,37.2-.2,4.99.92,9.96,3.28,14.44,4.76,8.5,13.37,14.28,23.06,15.46,1.85.21,3.72.32,5.58.32,12.29,0,24.01-4.54,33.12-12.82h.07l.86-.8c1.23-1.15,2.4-2.38,3.47-3.67l1.51-1.83-1.43-1.89c-3.56-4.72-7.58-9.14-11.92-13.13Z"/><path class="uuid-2326804a-4faf-44d9-ae55-768e9cf594a6" d="m827.61,67.53s-.04-.09-.06-.14l-.07-.18c-.28-.67-.63-1.32-1.03-1.92l-.5-.83c-7.7-13.27-22-21.51-37.34-21.51-.5,0-1,0-1.4.02-2.05,0-4.1.12-6.1.34-19.56,1.48-36.35,14.4-42.78,32.94l-.04.13c-7.13,23.98-1.31,46.2,15.58,59.43,9.03,7.08,20.13,10.83,32.09,10.83,11.27,0,22.94-3.35,33.73-9.7.08-.05.17-.09.26-.12l.28-.11.25-.16c1.45-.91,2.85-1.93,4.17-3.02l1.94-1.62-1.26-2.19c-4.04-6.99-8.84-13.57-14.28-19.54l-1.62-1.78-2.31,1.32c-.5.29-.96.55-1.21.7-.32.2-.66.38-1,.54l-.1.05-.1.05c-6.3,3.56-13.37,5.6-19.41,5.6s-11.37-2.07-15.23-6.2c-.72-.75-1.34-1.59-1.83-2.52l-.04-.07-.47-.77c-.06-.09-.11-.2-.15-.29-3.5-8.98-3.7-21.19,3.73-28.26,4.56-3.71,10.61-6.01,15.81-6.01,2.83,0,5.35.65,7.48,1.92.54.32.84.91.8,1.53-.05.63-.44,1.16-1.02,1.4l-11.85,4.88c-.84.35-1.79.79-2.61,1.21l-2.23,1.16.75,2.4c1.83,5.81,4.17,11.51,6.96,16.95l1.18,2.29,2.44-.82c.89-.3,1.83-.67,2.63-1.02,4.72-2.03,9.62-4.07,14.81-6.23l3.17-1.32c6.38-2.66,13.61-5.68,20.07-8.45.08-.03.15-.06.23-.08l.22-.06.21-.09c.59-.26,1.18-.54,1.71-.82l2.07-1.06-.52-2.27c-1.3-5.73-3.33-11.28-6.04-16.53Z"/><path class="uuid-2326804a-4faf-44d9-ae55-768e9cf594a6" d="m690.86,52.37c-.02-1.45-.11-2.91-.28-4.33l-.27-2.33-2.33-.3c-5.81-.74-11.72-1.11-17.57-1.11-2.21,0-4.45.05-6.66.16l-2.86.14v2.69c-.1.39-.35.73-.68.95-.27.18-.59.28-.91.28-.14,0-.27-.02-.35-.04-3.73-1.03-7.58-1.54-11.44-1.54-12.22,0-23.92,5.21-32.08,14.26-13.43,14.48-18.18,35.21-12.39,54.1,6.29,20.29,27.23,29.54,44.02,29.54,3.97,0,7.8-.48,11.38-1.43.14-.04.28-.05.43-.05.36,0,.71.12.99.33.41.3.65.77.66,1.32l.06,1.58.02.15c.44,3.19-.12,6.38-1.6,9.24-.02.03-.04.05-.06.07-4.5,5.52-12.98,6.44-19.8,7.18-1.1.12-2.17.24-3.2.37-3.49.18-7.03.27-10.53.27-4.39,0-8.83-.14-13.23-.43-.06,0-.12,0-.17-.02l-.15-.03h-.15c-.81-.06-1.62-.09-2.42-.09-.52,0-1.04.01-1.56.03l-2.22.09-.56,2.15c-1.61,6.22-2.54,12.62-2.76,19.04l-.08,2.41,2.34.6c1.64.42,3.34.76,5.07,1.02,11.09,1.57,19.94,2.3,27.84,2.3,24.63,0,40.61-7.48,48.89-22.95,3.27-6.58,4.88-13.95,4.64-21.23-.17-15.28-.08-31.81,0-46.4.08-15.11.18-32.24-.03-47.98Zm-61.23,58.35c-4.22-7.62-4.33-16.76-.28-24.48l.08-.16.06-.16c1.8-4.7,5.54-8.38,10.26-10.12,2.09-.51,4.25-.78,6.4-.78,4.41,0,8.8,1.1,12.67,3.18.53.29.86.84.86,1.46v30.53c0,.27-.06.53-.18.75-.4.74-4.2,7.24-16.03,7.24-5.6,0-10.77-2.79-13.85-7.46Z"/><path class="uuid-3002b7fb-112d-4cfc-b232-15683d5571a9" d="m363.02,113.79l-2-1.27-1.7,1.66c-.5.49-1,1-1.3,1.3l-.07.08c-.46.51-.97.98-1.51,1.39l-.09.07-.08.07c-.95.83-2.16,1.29-3.42,1.29-.66,0-1.3-.12-1.91-.37-2.32-1.48-3.63-4.09-3.41-6.86v-.1s0-.1,0-.1c.23-17.01,1.7-34.16,4.36-51.05l.93-7.08c.2-1.48.31-2.98.33-4.46l.03-2.14-2.01-.72c-4.53-1.63-14.65-3.91-20.82-3.91-1.76,0-3.11.19-4.14.58l-1.34.51-.45,1.37c-.12.37-.37.69-.7.9-.26.17-.56.25-.88.25-.18,0-.36-.03-.53-.09-6.43-2.22-12.77-3.35-18.86-3.35-14.71,0-27.24,6.41-36.26,18.58-14.53,20.58-14.22,48.02.83,68.34,7.75,9.8,19.75,15.2,33.8,15.2,9.56,0,19.41-2.53,27.72-7.12.24-.13.52-.2.81-.2.46,0,.9.19,1.21.53l.07.07c5.15,5.19,12.01,8.04,19.32,8.04,5.53,0,10.86-1.66,15.4-4.78,4.86-3.29,8.57-7.91,10.74-13.35l.78-1.97-1.59-1.4c-4.14-3.63-8.59-6.97-13.24-9.92Zm-73.56-14.41v-.1s0-.1,0-.1c-.84-11.21,1.09-18.86,5.9-23.39,3.65-3.42,8.91-5.08,16.1-5.08,2.63,0,5.58.22,8.78.67.87.12,1.49.91,1.41,1.81-1.12,12.69-1.35,25.58-.69,38.38.05.73-.39,1.42-1.04,1.66-4.07,1.43-8.32,2.18-12.68,2.24-.2,0-.41,0-.61,0-3.58,0-7.09-.96-10.16-2.79-4.35-3.03-6.96-7.99-6.99-13.3Z"/><path class="uuid-2326804a-4faf-44d9-ae55-768e9cf594a6" d="m1219.38,67.53s-.04-.09-.06-.14l-.07-.18c-.28-.67-.63-1.32-1.03-1.92l-.5-.83c-7.7-13.27-22-21.51-37.34-21.51-.5,0-1,0-1.4.02-2.05,0-4.1.12-6.1.34-19.56,1.48-36.35,14.4-42.78,32.94l-.04.13c-7.13,23.98-1.31,46.2,15.58,59.43,9.03,7.08,20.13,10.83,32.09,10.83,11.27,0,22.94-3.35,33.73-9.7.08-.05.17-.09.26-.12l.28-.11.25-.16c1.45-.91,2.85-1.93,4.17-3.02l1.94-1.62-1.26-2.19c-4.04-6.99-8.84-13.57-14.28-19.54l-1.62-1.78-2.31,1.32c-.5.29-.96.55-1.21.7-.32.2-.66.38-1,.54l-.1.05-.1.05c-6.3,3.56-13.37,5.6-19.41,5.6s-11.37-2.07-15.23-6.2c-.72-.75-1.34-1.59-1.83-2.52l-.04-.07-.47-.77c-.06-.09-.11-.2-.15-.29-3.5-8.98-3.7-21.19,3.73-28.26,4.56-3.71,10.61-6.01,15.81-6.01,2.83,0,5.35.65,7.48,1.92.54.32.84.91.8,1.53-.05.63-.44,1.16-1.02,1.4l-11.85,4.88c-.84.35-1.79.79-2.61,1.21l-2.23,1.16.75,2.4c1.83,5.81,4.17,11.52,6.96,16.95l1.18,2.29,2.44-.82c.89-.3,1.83-.67,2.63-1.02,4.72-2.03,9.62-4.07,14.81-6.23l3.17-1.32c6.37-2.66,13.59-5.67,20.07-8.45.08-.03.15-.06.23-.08l.22-.06.21-.09c.59-.26,1.18-.54,1.71-.82l2.07-1.06-.52-2.27c-1.3-5.73-3.33-11.28-6.04-16.54Z"/><path class="uuid-2326804a-4faf-44d9-ae55-768e9cf594a6" d="m1334.08,43.2l-.24-2.5-2.5-.2c-.89-.07-1.8-.11-2.69-.11s-1.8.04-2.6.1c-8.93.45-17.76,3.02-25.62,7.47-.26.16-.55.24-.85.24-.22,0-.43-.04-.63-.13-.46-.19-.81-.58-.95-1.05-.07-.4-.11-.81-.12-1.27-.09-1.83-.21-3.24-.36-4.31l-.33-2.41-2.43-.17c-3.22-.22-6.48-.34-9.71-.34-4.77,0-9.58.25-14.32.74l-2.51.26-.17,2.52c-.11,1.58-.13,3.19-.06,4.79.58,13.88,1.14,27.95,1.7,42.02l.63,15.95c.35,8.86.7,17.68,1.06,26.44v.47c.07,1.35.21,2.71.42,4.04l.38,2.37,2.39.16c2.69.17,5.42.26,8.12.26,5.31,0,10.67-.34,15.94-1.02l2.47-.32.14-2.49c.09-1.53.09-3.07,0-4.53-.24-6.67-.53-13.83-.83-21.04l-.13-3.21c-.33-8.05-.65-16.11-.91-23.42-.02-.43.15-.86.44-1.18.3-.32.71-.51,1.15-.52,1.26,0,2.52.12,3.83.36l3.1.52.78-2.49c.11-.34.24-.68.38-1.01l.07-.16.05-.17c.06-.19.13-.38.2-.55,3.24-6.17,9.02-10.48,15.86-11.82l.14-.03.14-.04c1.08-.32,2.19-.55,3.33-.71.38-.05,1.69-.25,2.81-.51l2.09-.48.22-2.13c.64-6.1.67-12.29.09-18.39Z"/><path class="uuid-3002b7fb-112d-4cfc-b232-15683d5571a9" d="m536.68,34.38l-2.47-.61-1.01,2.34c-.55,1.29-1.05,2.62-1.47,3.96l-6.18,19.86c-2.94,9.49-5.91,19.05-8.79,28.23-.21.68-.84,1.15-1.6,1.16-.69,0-1.3-.44-1.53-1.11l-16.66-48.58-.04-.1c-.46-1.4-1.03-2.79-1.69-4.13l-.76-1.55-1.72-.12c-4.12-.29-8.31-.44-12.44-.44s-8.72.16-13.04.48l-1.77.13-.74,1.61c-.68,1.48-1.26,3.02-1.74,4.57-2.3,7.49-4.71,15.21-7.12,22.94l-.04.14c-2.62,8.4-5.25,16.82-7.75,24.97-.21.68-.83,1.15-1.58,1.17-.7,0-1.33-.44-1.56-1.11-2.97-8.48-6.02-17.43-8.98-26.09l-.23-.67c-2.51-7.35-5.01-14.67-7.48-21.77l-.04-.11-.04-.09c-.48-1.39-.95-2.57-1.4-3.51l-1.03-2.2-2.37.56c-7.83,1.84-15.53,4.42-22.89,7.66l-2.31,1.02.61,2.45c.32,1.31.73,2.62,1.17,3.82,7.93,23.16,16.05,46.79,23.99,69.92l4.58,13.34c.5,1.46,1.1,2.92,1.79,4.33l.76,1.54,1.71.13c4.44.33,8.96.49,13.41.49,5.1,0,10.25-.22,15.33-.64l1.78-.15.72-1.63c.62-1.42,1.16-2.9,1.58-4.35,3.27-10.36,6.66-21.3,9.93-31.87l3.54-11.41c.21-.68.84-1.14,1.5-1.15.74,0,1.4.47,1.64,1.12,2.75,8.01,5.82,16.92,8.83,25.68l6.19,17.96c.51,1.49,1.11,2.95,1.8,4.35l.78,1.59,1.76.09c4.28.21,8.63.32,12.92.32,5.2,0,10.47-.16,15.66-.47l1.82-.11.74-1.66c.64-1.44,1.19-2.94,1.61-4.41,4.67-14.99,9.36-30.05,14.03-45.09l11.89-38.19c.33-1.08.66-2.37.9-3.56l.48-2.39-2.24-.96c-7.35-3.15-15-5.73-22.75-7.65Z"/><path class="uuid-3002b7fb-112d-4cfc-b232-15683d5571a9" d="m108.29,67.47c-2.6-48.23-30.47-57.92-74.61-57.92-4,0-8.22.08-12.92.24-2.65.09-6.03.23-8.78.54l-2.33.26-.3,2.33c-.2,1.53-.32,3.08-.35,4.6l-2.65,115c-.04,1.39,0,2.82.11,4.22l.19,2.44,2.43.3c8.06,1,16.27,1.5,24.39,1.5h0c2.9,0,5.84-.06,8.65-.19l3.37-.05c20.97-.25,36.94-6.07,47.46-17.3l4.72-5.05h-.61c8.61-12.15,12.38-29.24,11.23-50.93Zm-71.51,41.51c.32-12.06.61-24.8.89-37.12l.7-30.93c.02-.85.68-1.54,1.52-1.6,3.38-.25,6.36-.38,9.11-.38,10.72,0,17.53,1.93,22.08,6.27,5.68,5.41,7.83,14.29,7.44,30.65-.35,14.33-1.74,24.29-7.56,29.72-4.12,3.84-10.29,5.41-21.3,5.41-3.67,0-7.78-.17-11.31-.33-.89-.04-1.59-.8-1.57-1.69Z"/><path class="uuid-2326804a-4faf-44d9-ae55-768e9cf594a6" d="m1086.86,119.71c-.48-21.88-1.09-49.11-21-61.94-7.39-4.56-15.88-6.97-24.56-6.97-4.52,0-9.02.66-13.43,1.97-.07.02-.14.04-.21.05l-.19.04c-.13.03-.26.05-.4.05-.35,0-.69-.11-.97-.32-.39-.29-.63-.74-.65-1.25-.17-4.08-.3-8.22-.44-12.39l-.03-.86c-.22-6.96-.47-14.85-.99-22.27v-2.72l-2.73-.24c-3.5-.31-7.06-.47-10.58-.47s-7.08.16-10.58.47l-2.5.22-.22,2.5c-.14,1.58-.19,3.19-.16,4.77.27,15.16.46,30.56.65,45.45.31,24.56.63,49.96,1.3,75.18v2.77l2.77.22c3.27.26,6.58.39,9.86.39,4.71,0,9.46-.27,14.14-.8l2.52-.29.14-2.54c.08-1.47.08-2.95,0-4.37-.18-4.9-.37-9.88-.55-14.89l-.55-14.81c-.25-6.78-.5-13.51-.72-20.04-.02-.43.14-.85.38-1.11,3.88-3.97,9.29-6.24,14.84-6.24.41,0,.83.01,1.26.04,3.27.18,6.39,1.5,8.79,3.72l.08.07c9.77,8.39,9.83,25.53,9.88,40.66v.26c.02,4.33.04,8.43.26,12.25v.48c.01,1.59.06,2.83.13,3.77l.18,2.32,2.3.4c4.98.86,10.07,1.29,15.13,1.29,1.07,0,2.15-.02,3.22-.06l2.51-.09.35-2.49c.21-1.52.38-3.33.45-4.85h0c.19-5.02.44-12.26.33-17.09v-.26Z"/></g><g><path class="uuid-284c50af-cdae-4889-b0a9-664c7b1b0cff" d="m115.33,142.7c-11.74,12.53-29.21,19.02-51.99,19.3l-3.36.05c-3.3.04-6.74.09-10.2.09-9.02.22-18.04-.47-26.93-2.06-.85-.18-1.65-.57-2.33-1.12l-17.8-14.94-.04-.05c-.47-.42-.87-.92-1.17-1.48-.08-.14-.15-.29-.23-.44-.32-.65-.56-1.33-.73-2.04-.01-.06-.06-.11-.06-.19-.2-.96-.33-1.93-.4-2.91-.02-.26-.05-.53-.05-.81-.04-1.12-.08-2.33-.04-3.72L2.67,17.42c.02-1.34.1-2.52.2-3.63.03-.3.06-.59.09-.87.09-.84.23-1.66.41-2.48.03-.14.05-.3.08-.43.19-.74.44-1.47.76-2.16.08-.18.17-.32.25-.46.25-.45.54-.87.89-1.25.06-.06.13-.2.17-.23.03-.03.08-.05.11-.09.24-.21.5-.4.78-.56.12-.09.25-.17.38-.24.44-.22.91-.37,1.39-.46,4.09-.64,8.22-.99,12.35-1.04,1.61-.06,3.21-.1,4.81-.14l1.47-.03c1.12-.04,2.24-.06,3.37-.06h6.61c1.23.01,2.45.03,3.67.07h1.08c1.55.05,3.1.11,4.65.19l1.21.07c1.14.07,2.28.15,3.42.24.54.04,1.06.09,1.59.14,1.02.09,2.03.19,3.04.31l1.59.19c1.06.13,2.11.28,3.16.44.44.07.88.13,1.32.19,1.46.24,2.9.5,4.33.79.19.04.37.08.55.12,1.23.26,2.44.54,3.64.85.46.12.89.25,1.36.37.95.26,1.86.52,2.79.81.48.15.98.31,1.44.46.9.3,1.79.62,2.67.96.43.16.86.32,1.29.49,1.11.44,2.19.92,3.26,1.42.17.08.35.15.52.24,1.22.59,2.42,1.22,3.58,1.9.34.19.67.41,1.01.61.83.5,1.64,1.01,2.44,1.55.4.27.79.55,1.18.83.75.53,1.44,1.08,2.14,1.65.24.19.47.34.7.54l17.8,14.94c11.36,9.53,18.86,24.67,20.14,48.44,1.42,26.63-4.31,47.04-17.05,60.64Zm-24.58-21.3c10.95-11.67,15.82-29.76,14.54-53.77-2.62-48.69-30.51-56.68-84.43-54.85-2.72.09-5.95.23-8.54.52-.19,1.42-.3,2.85-.33,4.28l-2.65,115.02c-.04,1.3,0,2.6.1,3.9,10.82,1.34,21.74,1.77,32.63,1.29l3.38-.05c20.13-.24,35.37-5.75,45.31-16.35h-.01Zm-17.6-78.34c6.36,6.06,8.79,15.59,8.37,32.9-.37,15.11-1.92,25.7-8.51,31.84-5.32,4.95-12.97,6.21-23.34,6.21-3.5,0-7.32-.14-11.45-.34-2.53-.11-4.5-2.23-4.43-4.76.36-13.69.68-28.02,1-42.19l.59-25.85c.06-2.39,1.92-4.34,4.3-4.52,17.41-1.3,27.12.65,33.49,6.71Zm-.93,32.67c.04-1.69.05-3.26.01-4.79,0-.46-.04-.93-.04-1.39-.02-1.01-.05-1.96-.1-2.86-.03-.52-.07-1-.11-1.49-.06-.79-.13-1.56-.21-2.29-.05-.46-.14-.99-.19-1.39-.06-.41-.13-.79-.19-1.17-3.01-.18-6.03-.2-9.05-.04l-.49,21.57c-.16,7.25-.33,14.54-.49,21.76.13-.03.24-.07.37-.11.76-.21,1.51-.48,2.23-.81.22-.1.44-.2.66-.32.73-.38,1.42-.84,2.04-1.39.26-.26.5-.54.73-.84.21-.22.4-.46.58-.7.21-.32.4-.65.57-.99.17-.29.32-.5.49-.87.18-.38.33-.83.49-1.25.14-.35.28-.67.41-1.06.15-.48.28-1.03.42-1.56.11-.41.22-.77.32-1.24.13-.59.23-1.26.34-1.9.08-.46.18-.89.25-1.39.1-.7.18-1.5.27-2.26.06-.54.14-1.04.18-1.62.09-.91.14-1.93.21-2.93.03-.52.08-.99.11-1.54.08-1.61.15-3.3.19-5.11h.02Z"/><path class="uuid-284c50af-cdae-4889-b0a9-664c7b1b0cff" d="m241.97,80.17c-.15.76-.48,1.47-.98,2.07-2.43,2.25-5.58,3.55-8.89,3.68-.84.09-1.67.25-2.49.46-5.02.91-9.43,3.87-12.17,8.17-.13.38-.28.75-.43,1.11-.07.29-.16.57-.28.84-.35,1.83-1.24,3.52-2.56,4.84-.32.27-.68.49-1.07.67-1.6.67-3.35.89-5.07.66.23,6.19.5,12.77.77,19.33.32,7.85.64,15.69.89,22.84.37,6.13.06,12.64-5.11,13.48-6.86,1-13.78,1.51-20.71,1.53-3.65.05-7.31-.2-10.92-.75-.95-.2-1.84-.63-2.58-1.25l-17.8-14.94c-.17-.14-.32-.3-.46-.46-.3-.34-.55-.71-.76-1.11-.05-.09-.08-.21-.14-.3-.17-.34-.33-.69-.46-1.05-.07-.18-.11-.38-.17-.57-.09-.3-.2-.6-.28-.93-.06-.22-.08-.39-.14-.68-.06-.3-.14-.64-.18-.89-.04-.25-.06-.43-.1-.72-.04-.28-.1-.64-.12-.85-.02-.21-.05-.4-.05-.6-.03-.29-.08-.59-.08-.86v-.46c-.02-.27-.05-.56-.05-.8v-.97l-.04-.03c-.5-12.19-.99-24.52-1.47-36.88-.63-15.92-1.26-31.87-1.92-47.58-.06-1.44-.06-2.69-.03-3.86,0-.29.03-.59.03-.87.03-1.81.37-3.61,1-5.3.07-.15.14-.31.22-.46.27-.58.64-1.11,1.08-1.57.66-.63,1.48-1.08,2.36-1.29,8.93-2.44,29.29-1.14,31.58-.98h.16c.36.03.72.11,1.06.23.63.22,1.22.55,1.73.98h.04l5.14,4.31c.47-.16.99-.3,1.45-.46.65-.22,1.3-.44,1.96-.65,1.02-.32,2.06-.6,3.12-.87.65-.17,1.29-.34,1.95-.49,1.17-.27,2.36-.48,3.55-.68.58-.1,1.14-.22,1.72-.3,1.79-.26,3.59-.47,5.41-.59.11-.02.36-.05.7-.09l.36-.03c.29-.03.6-.08.99-.08.2-.03.42-.03.64-.03.38-.03.77-.03,1.19-.03h.82c.43,0,.87.04,1.33.07.29.03.58.05.87.08.49.05.98.14,1.45.24.26.05.53.09.79.15.6.15,1.19.34,1.76.58.11.05.23.07.33.12.59.26,1.14.6,1.64,1.01l17.81,14.94c.61.5,1.1,1.14,1.42,1.86.13.31.23.63.3.96,1.28,8.67,1.25,17.48-.1,26.13Zm-26.46-36.68c-1.63-.13-3.26-.13-4.89,0-8.51.43-16.8,2.84-24.21,7.04-1.26.77-2.82.89-4.18.33-1.36-.56-2.38-1.73-2.74-3.16-.11-.59-.17-1.18-.19-1.78-.1-1.9-.21-3.18-.33-4.05-7.83-.55-15.7-.42-23.51.39-.1,1.49-.12,2.98-.06,4.46.66,15.72,1.29,31.68,1.92,47.61.49,12.35.97,24.68,1.47,36.86v.38c.06,1.25.19,2.49.38,3.72,7.84.51,15.7.26,23.49-.73.08-1.42.08-2.84,0-4.25-.26-7.24-.58-15.06-.9-22.91-.34-8.49-.69-17.04-.96-24.76-.04-1.23.4-2.43,1.24-3.33.84-.9,2.01-1.43,3.24-1.48,1.49,0,2.97.13,4.43.4l.53.09c.14-.45.31-.89.5-1.33.1-.33.23-.66.37-.98,3.64-6.99,10.26-11.94,17.98-13.45,1.23-.36,2.48-.63,3.75-.8.69-.1,1.75-.27,2.57-.46.62-5.91.65-11.87.08-17.79Z"/><path class="uuid-284c50af-cdae-4889-b0a9-664c7b1b0cff" d="m401.57,139.61c.22,5.32-4.84,14.57-13.73,20.85-5.61,3.94-12.31,6.03-19.17,6.01-7.71.05-15.18-2.61-21.13-7.52l-.2-.17c-18.33,8.76-43.26,9.35-60.17-4.83l-17.81-14.94c-.71-.6-1.38-1.27-2.07-1.92-.38-.37-.79-.7-1.16-1.08-1.11-1.14-2.17-2.33-3.15-3.58-16.64-22.47-16.96-53.09-.79-75.9.89-1.19,1.8-2.33,2.75-3.43.31-.36.65-.68.97-1.03.65-.7,1.3-1.43,1.98-2.1.06-.06.06-.08.17-.18.11-.11.24-.19.35-.29,1.47-1.41,3.02-2.73,4.65-3.96.18-.14.34-.28.53-.41,1.64-1.19,3.34-2.27,5.11-3.26.32-.18.64-.36.96-.53,1.75-.93,3.55-1.75,5.4-2.46.32-.13.65-.23.97-.35,1.93-.71,3.9-1.29,5.89-1.75.12-.03.24-.04.36-.07,2-.43,4.01-.74,6.04-.93.28-.03.56-.09.84-.09,2.08-.16,4.16-.2,6.25-.13.4.01.79.05,1.2.05,2.14.11,4.27.34,6.39.68.35.06.69.13,1.04.19,2.31.4,4.59.93,6.85,1.57.51-.43,1.06-.8,1.65-1.11,8.51-4.48,30.31,2.13,33.65,3.89.33.18.64.39.93.62.04.03.08.05.12.08l17.8,14.94c1.72,1.45,2.87,4.37,1.79,12.14l-.93,7.09c-1.61,12.04-3.26,24.38-3.97,36.47l.1.08c1.7,1.2,3.44,2.51,5.07,3.86l.17.14,17.8,14.93c3.51,2.97,6.34,6.04,6.47,8.41Zm-27.29-13.65c-4.03-3.54-8.33-6.76-12.87-9.64-.47.46-.95.95-1.24,1.24-.59.65-1.24,1.25-1.94,1.78-2.39,2.1-5.78,2.63-8.69,1.34-3.39-2.04-5.33-5.82-5.02-9.76.23-17.22,1.7-34.39,4.39-51.4l.93-7.09c.19-1.36.29-2.73.31-4.1-5.68-2.05-19.2-4.75-22.88-3.35-.34,1.04-1.03,1.92-1.95,2.5-1.19.75-2.66.92-3.99.46-20.83-7.21-39.69-2.06-51.69,14.12-13.76,19.48-13.46,45.59.73,64.75,13.97,17.66,40.2,16.99,57.72,7.31.69-.38,1.47-.58,2.25-.57,1.3,0,2.53.54,3.41,1.49,8.25,8.31,21.26,9.53,30.91,2.89,4.34-2.94,7.7-7.11,9.64-11.98Zm-53.64-57.57c2.46.35,4.21,2.57,3.97,5.05-1.11,12.6-1.34,25.26-.69,37.9.15,2.07-1.09,3.99-3.04,4.71-4.37,1.53-8.95,2.35-13.58,2.41-4.39.14-8.72-.99-12.49-3.25-5.21-3.58-8.33-9.48-8.37-15.8-.92-12.18,1.33-20.62,6.84-25.8,5.7-5.35,14.41-6.99,27.35-5.2h0Zm-6.22,39.84c-.1-2.11-.16-4.24-.19-6.36v-.69c-.59,2.38-.88,4.82-.87,7.28.37-.08.74-.14,1.06-.22Z"/><path class="uuid-284c50af-cdae-4889-b0a9-664c7b1b0cff" d="m584.11,65.7l-11.89,38.19c-4.67,15.05-9.36,30.1-14.01,44.97-1.43,5.04-3.92,10.73-8.37,10.58-10.8.77-21.65.79-32.46.06h-.09c-1.23,0-2.42-.46-3.33-1.28l-17.8-14.94c-.07-.06-.11-.14-.18-.21-.61-.55-1.14-1.17-1.59-1.86-.07-.1-.13-.22-.2-.32-.48-.78-.92-1.58-1.29-2.41-.02-.05-.07-.09-.07-.13-1.11,3.54-2.22,7.07-3.31,10.51-1.44,5.04-3.66,10.83-8.41,10.56-5.61.38-12.58.77-19.29.77-4.37.04-8.73-.19-13.07-.71-1.26.04-2.49-.41-3.42-1.25l-17.8-14.94c-.07-.06-.13-.16-.2-.22-.42-.38-.8-.8-1.14-1.25-.07-.09-.14-.16-.2-.25-.43-.61-.82-1.25-1.17-1.9-.1-.19-.19-.38-.29-.58-.27-.54-.53-1.1-.77-1.68-.09-.21-.18-.42-.27-.64-.3-.75-.59-1.52-.85-2.29l-4.58-13.33c-7.95-23.13-16.06-46.77-23.96-69.82-.23-.59-.45-1.22-.66-1.86-.06-.19-.12-.39-.18-.59-.14-.44-.27-.87-.39-1.33-.06-.25-.12-.49-.18-.73-.1-.41-.19-.8-.26-1.2-.05-.26-.08-.51-.11-.76-.05-.38-.08-.75-.11-1.12v-.74c0-.35.03-.7.07-1.05.03-.2.05-.46.1-.67.08-.34.18-.68.32-1,.06-.18.13-.36.21-.54.21-.39.46-.75.77-1.08.06-.07.1-.15.16-.22.43-.42.93-.76,1.47-1.02,9.55-4.51,19.62-7.81,29.99-9.82.7-.06,1.4.01,2.07.22.18.05.35.12.52.19.48.2.94.46,1.35.77.08.06.18.08.26.15l17.81,14.94c2.23,2.37,3.84,5.26,4.68,8.41.03.06.08.14.08.21l.28.81.32-1.02c1.48-4.75,2.95-9.46,4.37-14.11.32-1.03.64-1.96.96-2.82.1-.28.21-.52.32-.79.22-.56.45-1.1.68-1.59.12-.28.25-.51.38-.75.21-.43.45-.82.68-1.19.13-.2.26-.41.39-.6.24-.32.5-.63.77-.93.09-.1.17-.23.27-.32.02-.02.05-.03.07-.05.45-.43.96-.78,1.52-1.05.12-.05.24-.1.36-.14.55-.22,1.14-.34,1.74-.36,9.87-.87,19.79-.89,29.66-.05.58.02,1.15.13,1.69.34.17.06.33.16.49.24.35.17.68.37.99.6.07.06.16.08.23.14l17.8,14.94c2.23,2.39,3.82,5.3,4.65,8.47l.08.22.27.78,4.7-15.13c.32-1.05.65-1.99.97-2.87.11-.29.22-.53.33-.8.21-.56.44-1.12.68-1.59.13-.28.27-.52.41-.78.19-.41.43-.8.65-1.15.17-.23.32-.44.46-.64.21-.29.44-.57.69-.84.08-.09.16-.21.25-.3.09-.09.15-.11.29-.23.14-.12.28-.24.42-.34.22-.16.44-.3.68-.42.14-.08.29-.15.43-.22.26-.1.53-.18.8-.24.14-.03.26-.09.4-.09.43-.06.86-.07,1.29-.03h.11c.52.05,1.13.18,1.71.27.5.08.91.13,1.43.23.65.13,1.37.32,2.07.49.54.13,1.05.23,1.61.38.71.17,1.47.42,2.21.64.6.18,1.19.33,1.8.53.75.23,1.52.5,2.29.75.61.21,1.23.4,1.86.61.84.29,1.66.59,2.49.88.56.2,1.12.4,1.67.6.93.34,1.81.68,2.7,1.02.42.16.87.32,1.28.49,2.56,1.02,4.92,1.98,6.78,2.79.5.21.97.49,1.39.84l17.8,14.94c2.98,2.5,1.93,7.73.41,12.63Zm-25.86-20.92c-7.22-3.1-14.67-5.6-22.29-7.49-.52,1.2-.97,2.42-1.36,3.66l-6.18,19.86c-2.94,9.5-5.91,19.06-8.8,28.24-.6,1.92-2.37,3.23-4.38,3.26-2.01.04-3.82-1.23-4.46-3.14l-16.64-48.53-.07-.18c-.43-1.28-.94-2.54-1.54-3.75-8.34-.59-16.71-.57-25.05.04-.62,1.36-1.16,2.77-1.6,4.21-2.31,7.49-4.71,15.21-7.13,22.95-2.63,8.44-5.28,16.91-7.79,25.1-.59,1.92-2.34,3.24-4.35,3.28h-.09c-1.98,0-3.74-1.25-4.39-3.12-3.03-8.65-6.09-17.64-9.15-26.59-2.53-7.4-5.05-14.79-7.54-21.94-.03-.06-.07-.13-.07-.19-.52-1.49-.95-2.53-1.28-3.22-7.67,1.8-15.16,4.31-22.37,7.49.3,1.21.67,2.4,1.1,3.57,7.93,23.16,16.04,46.79,23.99,69.92l4.58,13.34c.46,1.36,1.01,2.69,1.65,3.97,9.42.69,18.87.64,28.28-.15.58-1.32,1.07-2.67,1.47-4.05,3.5-11.08,7.11-22.78,10.61-34.07l2.85-9.21c.6-1.91,2.36-3.23,4.37-3.26,2,0,3.79,1.26,4.47,3.15,2.75,8.01,5.81,16.91,8.83,25.67l6.19,17.97c.46,1.36,1.01,2.7,1.65,3.99,9.41.47,18.84.42,28.25-.15.59-1.32,1.09-2.69,1.49-4.08,4.67-14.99,9.36-30.05,14.03-45.09l11.89-38.18c.33-1.07.63-2.3.82-3.27Z"/><path class="uuid-284c50af-cdae-4889-b0a9-664c7b1b0cff" d="m714.99,115.24c-.08,15.45-.16,31.43,0,46.38.23,8.42-1.64,16.76-5.43,24.27-11.46,21.42-34.71,26.25-55,26.25-9.43-.13-18.84-.94-28.16-2.41-3.86-.23-7.59-1.41-10.88-3.45l-17.8-14.94s-.06-.09-.1-.13c-.45-.4-.83-.87-1.11-1.39-.09-.15-.16-.3-.23-.46-.27-.63-.42-1.32-.42-2.01-.06-9.03,1.3-18.01,4.04-26.62.27-.63.66-1.21,1.13-1.7.06-.06.09-.16.15-.22.15-.14.3-.28.46-.4,3.42-1.47,7.19-1.94,10.87-1.37,2.19.12,4.31.22,6.35.29.71.05,1.35.05,2.04.05,1.3.03,2.62.08,3.85.08h5.41c.74-.02,1.42-.06,2.13-.08.86-.03,1.75-.06,2.57-.11-1.97-1.25-3.85-2.63-5.63-4.12l-17.8-14.94c-.14-.11-.25-.24-.38-.36-1.31-1.13-2.57-2.32-3.75-3.58-.34-.36-.68-.71-1-1.08-1.28-1.42-2.48-2.91-3.58-4.48-.07-.11-.13-.22-.2-.32-1-1.48-1.91-3.03-2.72-4.62-.22-.43-.44-.85-.65-1.31-.84-1.73-1.55-3.51-2.13-5.34-6.46-21.14-1.19-44.12,13.84-60.32.54-.57,1.11-1.15,1.65-1.67.53-.52,1.11-.96,1.66-1.45.71-.65,1.43-1.29,2.17-1.89.88-.71,1.77-1.36,2.7-2,.79-.54,1.54-1.09,2.32-1.58.94-.59,1.92-1.11,2.9-1.64.79-.43,1.58-.88,2.39-1.26,1.01-.47,2.05-.87,3.1-1.27.81-.31,1.62-.66,2.45-.93,1.08-.35,2.19-.61,3.3-.89.82-.21,1.63-.45,2.46-.61,1.17-.23,2.36-.35,3.55-.5.79-.1,1.58-.24,2.39-.3,1.33-.1,2.68-.06,4.03-.06.68,0,1.35-.03,2.04,0,2.07.1,4.13.32,6.17.67.26-.44.57-.85.93-1.21.05-.06.08-.12.13-.17.05-.05.12-.08.17-.12.24-.21.49-.39.75-.55.13-.08.24-.16.38-.23.44-.22.91-.38,1.39-.46,8.76-1.88,27.82.33,31.54.79.55.06,1.08.21,1.58.43.15.08.29.17.43.27.25.12.48.27.7.43l17.8,14.94c2.5,3.36,3.59,7.56,3.04,11.7.18,15.54.09,32.07,0,48.01Zm-27.1-14.91c.09-15.96.17-32.47-.03-47.93-.02-1.35-.11-2.69-.26-4.03-7.86-1-15.79-1.31-23.71-.93v.12c-.2,1.29-.94,2.44-2.03,3.16-1.09.73-2.44.96-3.72.63-14.66-4.03-30.35.56-40.52,11.86-12.75,13.75-17.22,33.24-11.73,51.17,6.73,21.69,32.67,31.15,51.78,26.09,1.38-.36,2.84-.08,3.98.77,1.14.85,1.82,2.18,1.86,3.6l.05,1.44c.53,3.84-.17,7.76-1.99,11.18-.1.15-.2.29-.31.43-5.28,6.48-14.44,7.47-21.8,8.27-1.12.12-2.21.24-3.26.38-8.06.42-16.14.37-24.2-.15-.16,0-.33-.03-.49-.06-1.22-.08-2.45-.09-3.67-.04-1.56,6.02-2.45,12.18-2.66,18.39,1.57.4,3.15.72,4.75.96,29.14,4.12,60.73,5.08,73.63-19.02,3.06-6.16,4.55-12.98,4.33-19.86-.17-14.96-.08-30.97,0-46.46h0Zm-25.2-20.67v30.53c0,.75-.18,1.49-.53,2.16-.47.89-5.02,8.83-18.68,8.83-6.63,0-12.81-3.35-16.42-8.91-4.75-8.49-4.89-18.81-.37-27.42,2.13-5.56,6.58-9.91,12.19-11.92,7.21-1.82,14.83-.87,21.38,2.64,1.5.81,2.43,2.39,2.42,4.09Zm-9.31,23.05c-.13.26-.25.53-.37.8-.98,2.2-1.7,4.5-2.14,6.87l.15-.07c.43-.22.84-.46,1.24-.73.05-.04.09-.07.14-.11.27-.19.52-.41.77-.64.07-.06.15-.14.21-.2v-5.92Z"/><path class="uuid-284c50af-cdae-4889-b0a9-664c7b1b0cff" d="m849.43,109.38c-6.06,2.59-12.66,5.35-19.24,8.09l1.1.93c.2.16.39.34.56.54,7.38,7.68,13.56,16.42,18.34,25.94,1.78,4.2-2.48,7.83-7.35,11.11-.7.5-1.45.94-2.23,1.32-11.13,6.72-23.86,10.36-36.86,10.54-13.01.11-25.68-4.18-35.95-12.18-.5-.39-1.01-.79-1.47-1.2l-17.81-14.94c-.34-.29-.65-.6-.99-.9-.53-.49-1.01-.9-1.56-1.42-.55-.53-1.11-1.1-1.6-1.6s-.93-.96-1.43-1.52c-.5-.56-1.02-1.18-1.46-1.71-.44-.54-.84-1.01-1.29-1.61-.45-.59-.92-1.26-1.31-1.82-.38-.56-.74-1.06-1.14-1.69-.4-.63-.81-1.33-1.15-1.92-.34-.59-.66-1.1-1-1.77-.35-.66-.7-1.39-1-2.02-.29-.63-.59-1.24-.86-1.86-.3-.71-.57-1.4-.84-2.11-.25-.63-.49-1.26-.71-1.9-.25-.73-.46-1.46-.68-2.2-.2-.65-.4-1.3-.57-1.96-.19-.75-.35-1.51-.52-2.27-.14-.67-.3-1.34-.42-2.01-.14-.78-.24-1.58-.36-2.37-.1-.68-.2-1.35-.28-2.04-.09-.81-.13-1.63-.18-2.45-.05-.67-.13-1.37-.13-2.06v-2.56c0-.69-.02-1.36,0-2.05.03-.88.11-1.78.17-2.68.05-.67.08-1.35.15-2.03.09-.94.24-1.9.38-2.85.09-.64.15-1.28.27-1.92.18-1.09.41-2.17.64-3.26.12-.53.2-1.06.33-1.6.38-1.63.81-3.26,1.3-4.89.57-1.82,1.24-3.6,2.02-5.34.15-.36.3-.72.46-1.07.77-1.66,1.64-3.28,2.59-4.85.17-.28.35-.55.53-.82.92-1.44,1.91-2.84,2.97-4.18.17-.2.31-.4.46-.59,1.17-1.43,2.41-2.81,3.72-4.11.14-.14.19-.23.39-.43.2-.2.44-.38.65-.58.68-.62,1.38-1.25,2.1-1.86.41-.34.81-.7,1.23-1.03.81-.64,1.65-1.25,2.5-1.86.35-.26.69-.52,1.06-.76,1.22-.83,2.47-1.62,3.77-2.36.2-.11.42-.22.62-.33,1.1-.61,2.22-1.19,3.37-1.74.49-.22.95-.42,1.42-.63.93-.41,1.86-.8,2.79-1.16.54-.2,1.08-.4,1.63-.59.92-.32,1.89-.63,2.82-.91.55-.15,1.11-.32,1.67-.47,1.03-.27,2.07-.51,3.12-.73.5-.11.98-.22,1.49-.32,1.55-.29,3.12-.53,4.71-.71,1.72-.19,3.42-.28,5.11-.33h1.39c1.39,0,2.77.04,4.13.13.3.02.62.02.93.05,1.62.14,3.22.35,4.79.62.38.06.77.15,1.15.23,1.26.24,2.5.53,3.72.86.39.11.79.2,1.18.32,1.5.44,2.98.94,4.42,1.51.22.09.46.2.68.29,1.23.51,2.43,1.06,3.61,1.66.38.19.76.39,1.13.6,1.27.68,2.5,1.41,3.69,2.19l.3.19c1.27.85,2.48,1.78,3.66,2.75.13.11.28.2.42.31l17.8,14.94c4.34,3.64,7.99,8.03,10.78,12.96l.41.69c.57.9,1.07,1.84,1.47,2.83,3.34,6.45,5.7,13.37,7,20.52,1.14,5.03-5.36,7.71-8.18,8.86-.17.05-.35.1-.53.14Zm-18.7-24.65c-1.25-5.49-3.19-10.8-5.77-15.8-.09-.18-.17-.37-.24-.56-.22-.52-.49-1.01-.8-1.48l-.55-.93c-7.44-12.82-21.33-20.5-36.14-19.99-1.95,0-3.89.11-5.82.33-18.38,1.37-34.18,13.52-40.23,30.93-6.77,22.74-1.33,43.77,14.55,56.21,16.9,13.25,40.84,13.6,62.45.9.22-.13.46-.24.7-.33,1.34-.84,2.63-1.78,3.85-2.79-3.94-6.82-8.6-13.19-13.9-19.02-.55.32-1.09.62-1.35.78-.42.26-.85.49-1.29.7-11.3,6.39-27.98,9.88-38.26-1.12-.92-.95-1.7-2.03-2.33-3.2l-.41-.68c-.15-.24-.28-.5-.38-.77-3.88-9.95-3.98-23.59,4.54-31.61,7.29-5.98,18.67-9.27,26.81-4.42,1.51.9,2.38,2.58,2.25,4.34-.13,1.75-1.24,3.28-2.87,3.95l-11.85,4.89c-.78.32-1.64.72-2.36,1.1,1.79,5.67,4.05,11.19,6.77,16.48.77-.26,1.63-.59,2.39-.93,5.72-2.45,11.85-5,18.01-7.57,6.87-2.87,13.77-5.75,20.07-8.45.2-.08.4-.15.6-.21.54-.24,1.08-.5,1.56-.74Z"/><path class="uuid-284c50af-cdae-4889-b0a9-664c7b1b0cff" d="m972.64,146.18l.05.05c-10.23,9.56-23.67,14.93-37.67,15.05-2.29,0-4.57-.16-6.84-.49-7.01-.92-13.63-3.79-19.09-8.28l-17.8-14.94s-.07-.08-.11-.11c-1.44-1.24-2.79-2.6-4.01-4.05-.29-.35-.58-.7-.86-1.06-1.25-1.55-2.38-3.19-3.37-4.92-2.96-5.39-4.41-11.49-4.18-17.64.09-3.72.19-7.53.28-11.38.03-1.11.06-2.2.09-3.31.08-3.01.16-6,.24-9.01l.04-1.61v-1.4l-12.72-10.69c-.22-.21-.41-.43-.59-.67-.11-.14-.25-.25-.35-.41-.31-.47-.54-.98-.68-1.52-2.62-8.75-2.13-29.01-2.07-31.29.01-.69.16-1.37.44-2,.11-.19.24-.38.38-.55.19-.35.42-.67.68-.96.02-.02.07-.05.07-.05.62-.55,1.33-.99,2.09-1.3.2-.09.4-.17.61-.25.82-.3,1.68-.54,2.54-.69h.07c.87-.14,1.74-.24,2.62-.29l.66-.04c.75-.04,1.45-.07,2.01-.07l4.71-.11h.89l.52-18.97c.03-1.31.1-2.47.2-3.56.03-.29.06-.58.09-.86.09-.81.23-1.61.41-2.41.03-.16.06-.33.09-.46.18-.73.44-1.44.76-2.12.08-.18.16-.32.24-.46.24-.44.53-.85.87-1.22.06-.07.13-.2.17-.24.04-.04.09-.05.12-.09.24-.21.5-.4.78-.56.12-.09.25-.17.38-.25.44-.22.91-.37,1.39-.46,9.68-1.73,30.72,1.22,31.61,1.35.55.08,1.08.23,1.58.46.15.08.29.17.42.27.22.11.42.24.62.38l17.8,14.94c2.6,2.16,2.8,6.97,2.58,11.62l-.44,9.65,10.58,8.87c.84.71,1.41,1.67,1.64,2.73,1.85,8.42,2.36,17.09,1.49,25.67-.63,3.42-3.65,4.98-11.55,5.99-.2.03-1.93.27-3.72.5l-.42.06-.73,15.92c.38-.13.72-.21,1.07-.3.13-.03.27-.08.39-.11.68-.15,1.37-.22,2.06-.18.14,0,.28.04.42.04.63.06,1.23.21,1.81.46.31.15.6.33.87.54.26.21.54.43.83.68l17.8,14.94c5.91,5.23,11.2,11.13,15.74,17.58.33.49.57,1.03.71,1.6,1.02,4.44-4.8,9.85-7.33,11.98Zm-23.64-22.08c1.14-1.06,2.21-2.19,3.2-3.39-3.46-4.58-7.33-8.84-11.56-12.73-.97.43-1.92.92-2.83,1.46l-1.8.96c-5.18,3.27-11.02,5.36-17.1,6.13-2.36.13-4.66-.73-6.34-2.39-1.68-1.65-2.59-3.94-2.49-6.3l2.01-44.1c.09-2.06,1.54-3.81,3.54-4.3.11-.02,2.5-.36,4.78-.66,1.68-.21,3.3-.42,3.61-.47,1.4-.18,2.9-.44,4.01-.7.22-5.73-.17-11.46-1.16-17.11-1.16-.06-2.65-.11-3.98-.06l-4.72.14c-1.3.06-2.56-.45-3.45-1.39-.91-.92-1.39-2.18-1.33-3.47l.97-21.57c.07-1.16.06-2.47,0-3.51-7.75-1.08-15.57-1.52-23.39-1.32-.17,1.33-.27,2.67-.3,4.01l-.65,23.42c-.06,2.46-2.04,4.45-4.5,4.52-.72.02-3.09.07-5.37.12l-4.69.1c-1.06.02-2.22.11-3.18.21-.21,7.68.2,15.37,1.21,22.99,1.09-.03,2.44-.13,3.64-.29l6.79-.89c.2-.02.4-.04.6-.04,1.15,0,2.26.43,3.12,1.2,1.01.91,1.57,2.22,1.53,3.58l-.08,2.65c-.35,12.62-.74,26.39-1.04,38.88-.18,4.47.82,8.9,2.9,12.86,4.31,7.7,12.03,12.88,20.79,13.95,13.42,1.53,26.84-2.88,36.72-12.09.16-.16.34-.3.52-.43h0Z"/><path class="uuid-284c50af-cdae-4889-b0a9-664c7b1b0cff" d="m1110.63,152.23c-.34,7.75-1.43,12.66-5.92,13.22-2.19.22-4.39.32-6.6.3-6.67.1-13.33-.63-19.82-2.17-.66-.22-1.27-.55-1.8-1l-17.8-14.94c-.07-.06-.1-.15-.16-.22-.55-.51-1-1.11-1.33-1.78-.02-.03-.04-.06-.05-.1-.34-.77-.59-1.58-.73-2.42-.03-.15-.07-.3-.09-.47-.14-.87-.22-1.75-.27-2.63l-.03-.6c-.03-.88-.05-1.77-.05-2.65-.24-4.16-.27-8.44-.27-12.99,0-1.77-.04-3.58-.04-5.38,0-.55-.04-1.1-.04-1.65-.02-1.29-.05-2.58-.1-3.87-.03-.68-.08-1.35-.12-2.03-.06-1.13-.13-2.25-.23-3.36-.07-.75-.16-1.43-.24-2.14-.12-1.02-.25-2.03-.4-3.01-.05-.27-.11-.53-.16-.8-1.24.47-2.4,1.12-3.45,1.93.26,7.4.55,15.04.84,22.69.31,8.39.63,16.77.9,24.83.35,6.08,0,12.51-5.15,13.35-10.5,1.5-21.15,1.61-31.68.35-.88-.14-1.71-.52-2.39-1.09l-17.8-14.94s-.06-.09-.09-.12c-.48-.43-.88-.93-1.2-1.49-.07-.12-.13-.25-.19-.38-.26-.51-.47-1.05-.64-1.6-.02-.07-.08-.15-.08-.23-.15-.57-.28-1.16-.37-1.75-.02-.15-.06-.27-.06-.41-.06-.48-.11-.93-.14-1.27-.68-25.37-1.01-50.89-1.32-75.57-.19-15.15-.38-30.29-.65-45.4-.03-1.41,0-2.65.05-3.81.01-.29.05-.57.05-.85.06-1,.18-1.99.36-2.98v-.08c.15-.74.38-1.47.68-2.16.07-.15.14-.32.22-.46.27-.57.63-1.09,1.07-1.54.21-.19.44-.35.68-.5.1-.09.21-.17.32-.25.39-.21.8-.38,1.22-.5,8.34-2.3,26.97-.66,29.07-.46.54.07,1.07.21,1.57.43.19.07.31.19.46.28.27.13.53.29.77.46l17.8,14.94c1.76,1.93,2.75,4.44,2.79,7.06.36,5.02.6,10.03.78,14.98.3.04.59.13.89.18.99.17,1.97.38,2.96.6.71.16,1.41.31,2.11.49,1.02.27,2.03.6,3.03.93.65.21,1.3.4,1.94.65,1.11.41,2.18.9,3.25,1.36.53.23,1.07.44,1.6.7,1.58.77,3.13,1.6,4.65,2.53,1.45.94,2.85,1.97,4.18,3.07.05.04.1.08.15.11l17.81,14.94c18.52,15.54,19.14,43.29,19.6,63.94h0s0,.19,0,.19h0c.11,5.02-.12,11.99-.33,17.5Zm-27.1-15.27c.19-4.97.43-12.13.33-16.98v-.19c-.47-21.17-1.06-47.52-19.57-59.45-10.62-6.55-23.53-8.26-35.48-4.7-.19.06-.39.12-.6.15-1.35.34-2.79.05-3.9-.79-1.11-.84-1.79-2.13-1.84-3.52-.18-4.37-.32-8.81-.46-13.28-.23-7.35-.48-14.95-1-22.26v-.08c-6.86-.61-13.77-.61-20.63,0-.13,1.48-.18,2.97-.14,4.45.27,15.14.46,30.3.65,45.47.31,24.65.64,50.15,1.3,75.13v.09c7.8.61,15.64.48,23.42-.4.07-1.36.07-2.73,0-4.1-.3-8.15-.62-16.51-.93-24.91-.31-8.39-.63-16.78-.9-24.84-.05-1.23.4-2.42,1.24-3.32,4.82-4.92,11.53-7.51,18.41-7.1,3.97.22,7.74,1.82,10.66,4.51,10.81,9.28,10.87,27.16,10.93,42.92.02,4.42.03,8.6.26,12.43v.54c.01,1.64.06,2.77.12,3.56,5.85,1.01,11.79,1.41,17.73,1.19.19-1.31.36-3.02.42-4.56v.02Z"/><path class="uuid-284c50af-cdae-4889-b0a9-664c7b1b0cff" d="m1241.2,109.38c-6.06,2.59-12.66,5.35-19.24,8.09l1.1.93c.2.16.39.34.56.54,7.38,7.68,13.56,16.42,18.34,25.94,1.78,4.2-2.48,7.83-7.35,11.11-.7.5-1.45.94-2.23,1.32-11.13,6.72-23.86,10.36-36.86,10.54-13.01.11-25.68-4.18-35.95-12.18-.5-.39-1.01-.79-1.47-1.2l-17.81-14.94c-.34-.29-.65-.6-.99-.9-.53-.49-1.01-.9-1.56-1.42-.55-.53-1.11-1.1-1.6-1.6s-.93-.96-1.43-1.52c-.5-.56-1.02-1.18-1.46-1.71-.44-.54-.84-1.01-1.29-1.61-.45-.59-.92-1.26-1.31-1.82-.38-.56-.74-1.06-1.14-1.69-.4-.63-.81-1.33-1.15-1.92-.34-.59-.66-1.1-1-1.77-.35-.66-.7-1.39-1-2.02-.29-.63-.59-1.24-.86-1.86-.3-.71-.57-1.4-.84-2.11-.25-.63-.49-1.26-.71-1.9-.25-.73-.46-1.46-.68-2.2-.2-.65-.4-1.3-.57-1.96-.19-.75-.35-1.51-.52-2.27-.14-.67-.3-1.34-.42-2.01-.14-.78-.24-1.58-.36-2.37-.1-.68-.2-1.35-.28-2.04-.09-.81-.13-1.63-.18-2.45-.05-.67-.13-1.37-.13-2.06v-2.56c0-.69-.02-1.36,0-2.05.03-.88.11-1.78.17-2.68.05-.67.08-1.35.15-2.03.09-.94.24-1.9.38-2.85.09-.64.15-1.28.27-1.92.18-1.09.41-2.17.64-3.26.12-.53.2-1.06.33-1.6.38-1.63.81-3.26,1.3-4.89.57-1.82,1.24-3.6,2.02-5.34.15-.36.3-.72.46-1.07.77-1.66,1.64-3.28,2.59-4.85.17-.28.35-.55.53-.82.92-1.44,1.91-2.84,2.97-4.18.17-.2.31-.4.46-.59,1.17-1.43,2.41-2.81,3.72-4.11.14-.14.19-.23.39-.43.2-.2.44-.38.65-.58.68-.62,1.38-1.25,2.1-1.86.41-.34.81-.7,1.23-1.03.81-.64,1.65-1.25,2.5-1.86.35-.26.69-.52,1.06-.76,1.22-.83,2.47-1.62,3.77-2.36.2-.11.42-.22.62-.33,1.1-.61,2.22-1.19,3.37-1.74.49-.22.95-.42,1.42-.63.93-.41,1.86-.8,2.79-1.16.54-.2,1.08-.4,1.63-.59.92-.32,1.89-.63,2.82-.91.55-.15,1.11-.32,1.67-.47,1.03-.27,2.07-.51,3.12-.73.5-.11.98-.22,1.49-.32,1.55-.29,3.12-.53,4.71-.71,1.72-.19,3.42-.28,5.11-.33h1.39c1.39,0,2.77.04,4.13.13.3.02.62.02.93.05,1.62.14,3.22.35,4.79.62.38.06.77.15,1.15.23,1.26.24,2.5.53,3.72.86.39.11.79.2,1.18.32,1.5.44,2.98.94,4.42,1.51.22.09.46.2.68.29,1.23.51,2.43,1.06,3.61,1.66.38.19.76.39,1.13.6,1.27.68,2.5,1.41,3.69,2.19l.3.19c1.27.85,2.48,1.78,3.66,2.75.13.11.28.2.42.31l17.8,14.94c4.34,3.64,7.99,8.03,10.78,12.96l.41.69c.57.9,1.07,1.84,1.47,2.83,3.34,6.45,5.7,13.37,7,20.52,1.14,5.03-5.36,7.71-8.18,8.86-.17.05-.35.1-.53.14Zm-18.7-24.65c-1.25-5.49-3.19-10.8-5.77-15.8-.09-.18-.17-.37-.24-.56-.22-.52-.49-1.01-.8-1.48l-.55-.93c-7.44-12.82-21.33-20.5-36.14-19.99-1.95,0-3.89.11-5.82.33-18.38,1.37-34.18,13.52-40.23,30.93-6.77,22.74-1.33,43.77,14.55,56.21,16.9,13.25,40.84,13.6,62.45.9.22-.13.46-.24.7-.33,1.34-.84,2.63-1.78,3.85-2.79-3.94-6.82-8.6-13.19-13.9-19.02-.55.32-1.09.62-1.35.78-.42.26-.85.49-1.29.7-11.3,6.39-27.98,9.88-38.26-1.12-.92-.95-1.7-2.03-2.33-3.2l-.41-.68c-.15-.24-.28-.5-.38-.77-3.88-9.95-3.98-23.59,4.54-31.61,7.29-5.98,18.67-9.27,26.81-4.42,1.51.9,2.38,2.58,2.25,4.34-.13,1.75-1.24,3.28-2.87,3.95l-11.85,4.89c-.78.32-1.64.72-2.36,1.1,1.79,5.67,4.05,11.19,6.77,16.48.77-.26,1.63-.59,2.39-.93,5.72-2.45,11.85-5,18.01-7.57,6.87-2.87,13.77-5.75,20.07-8.45.2-.08.4-.15.6-.21.54-.24,1.08-.5,1.56-.74Z"/><path class="uuid-284c50af-cdae-4889-b0a9-664c7b1b0cff" d="m1357.56,80.17c-.15.76-.48,1.47-.98,2.07-2.43,2.25-5.58,3.55-8.89,3.68-.84.09-1.67.25-2.49.46-5.02.91-9.43,3.87-12.17,8.17-.13.38-.28.75-.43,1.11-.07.29-.16.57-.28.84-.35,1.83-1.24,3.52-2.56,4.84-.32.27-.68.49-1.07.67-1.6.67-3.35.89-5.07.66.23,6.19.5,12.77.77,19.33.32,7.85.64,15.69.89,22.84.37,6.13.06,12.64-5.11,13.48-6.86,1-13.78,1.51-20.71,1.53-3.65.05-7.31-.2-10.92-.75-.95-.2-1.84-.63-2.58-1.25l-17.8-14.94c-.17-.14-.32-.3-.46-.46-.3-.34-.55-.71-.76-1.11-.05-.09-.08-.21-.14-.3-.17-.34-.33-.69-.46-1.05-.07-.18-.11-.38-.17-.57-.09-.3-.2-.6-.28-.93-.06-.22-.08-.39-.14-.68-.06-.3-.14-.64-.18-.89-.04-.25-.06-.43-.1-.72-.04-.28-.1-.64-.12-.85-.02-.21-.05-.4-.05-.6-.03-.29-.08-.59-.08-.86v-.46c-.02-.27-.05-.56-.05-.8v-.97l-.04-.03c-.5-12.19-.99-24.52-1.47-36.88-.63-15.92-1.26-31.87-1.92-47.58-.06-1.44-.06-2.69-.03-3.86,0-.29.03-.59.03-.87.03-1.81.37-3.61,1-5.3.07-.15.14-.31.22-.46.27-.58.64-1.11,1.08-1.57.66-.63,1.48-1.08,2.36-1.29,8.93-2.44,29.29-1.14,31.58-.98h.16c.36.03.72.11,1.06.23.63.22,1.22.55,1.73.98h.04l5.14,4.31c.47-.16.99-.3,1.45-.46.65-.22,1.3-.44,1.96-.65,1.02-.32,2.06-.6,3.12-.87.65-.17,1.29-.34,1.95-.49,1.17-.27,2.36-.48,3.55-.68.58-.1,1.14-.22,1.72-.3,1.79-.26,3.59-.47,5.41-.59.11-.02.36-.05.7-.09l.36-.03c.29-.03.6-.08.99-.08.2-.03.42-.03.64-.03.38-.03.77-.03,1.19-.03h.82c.43,0,.87.04,1.33.07.29.03.58.05.87.08.49.05.98.14,1.45.24.26.05.53.09.79.15.6.15,1.19.34,1.76.58.11.05.23.07.33.12.59.26,1.14.6,1.64,1.01l17.81,14.94c.61.5,1.1,1.14,1.42,1.86.13.31.23.63.29.96,1.28,8.67,1.25,17.48-.1,26.13Zm-26.46-36.68c-1.63-.13-3.26-.13-4.89,0-8.51.43-16.8,2.84-24.21,7.04-1.26.77-2.82.89-4.18.33-1.36-.56-2.38-1.73-2.74-3.16-.11-.59-.17-1.18-.19-1.78-.1-1.9-.21-3.18-.33-4.05-7.83-.55-15.7-.42-23.5.39-.1,1.49-.12,2.98-.06,4.46.66,15.72,1.29,31.68,1.92,47.61.49,12.35.97,24.68,1.47,36.86v.38c.06,1.25.19,2.49.38,3.72,7.84.51,15.7.26,23.49-.73.08-1.42.08-2.84,0-4.25-.26-7.24-.58-15.06-.9-22.91-.34-8.49-.69-17.04-.96-24.76-.04-1.23.4-2.43,1.24-3.33.84-.9,2.01-1.43,3.24-1.48,1.49,0,2.97.13,4.43.4l.53.09c.14-.45.31-.89.5-1.33.1-.33.23-.66.37-.98,3.64-6.99,10.26-11.94,17.98-13.45,1.23-.36,2.48-.63,3.75-.8.69-.1,1.75-.27,2.57-.46.62-5.91.65-11.87.08-17.79Z"/></g></g></g></svg>
