<svg width="1359" height="995" viewBox="0 0 1359 995" fill="none" xmlns="http://www.w3.org/2000/svg">
<path d="M440.697 659.885L634.567 614.125C634.807 614.065 635.057 614.055 635.297 614.085L956.407 651.585C957.467 651.705 958.277 652.615 958.277 653.685V659.345C958.277 660.125 957.847 660.835 957.167 661.205L794.377 748.415C793.927 748.655 793.407 748.725 792.907 748.615L440.717 667.595C439.757 667.375 439.077 666.525 439.077 665.535V661.945C439.077 660.965 439.747 660.115 440.707 659.895L440.697 659.885Z" fill="#212121"/>
<path d="M475.697 659.385L635.227 621.665C635.317 621.645 635.407 621.635 635.497 621.645L925.807 653.655C926.607 653.745 926.777 654.835 926.047 655.165L788.607 717.085C788.457 717.155 788.297 717.175 788.137 717.145L475.727 660.935C474.877 660.785 474.847 659.585 475.687 659.385H475.697Z" fill="white"/>
<path d="M265.557 148.765C249.787 135.965 247.727 123.415 247.727 123.415C237.987 118.215 232.287 103.105 232.287 103.105L211.647 76.6854C211.647 76.6854 194.147 54.7254 231.467 20.2054C253.227 0.0653839 271.967 0.395384 283.797 4.15538C290.927 6.42538 297.047 11.0954 301.377 17.1954L315.347 36.8854C315.347 36.8854 328.557 46.2954 331.857 55.8754C331.857 55.8754 346.137 61.9854 349.027 79.6554L642.967 481.595L679.297 635.505L552.687 545.675L265.557 148.765Z" fill="#212121"/>
<path d="M236.417 96.3354C236.417 96.3354 260.527 48.2754 306.927 37.5454L290.577 16.3654C289.867 15.4454 288.957 14.6954 287.907 14.1854C282.217 11.4054 262.817 4.15539 241.197 21.1954C215.437 41.5054 213.127 64.2254 216.757 70.6154C220.387 77.0054 236.407 96.3354 236.407 96.3354H236.417Z" fill="#DE6B9B"/>
<path d="M323.167 56.3154C317.337 43.6554 311.827 42.4454 311.827 42.4454C260.417 54.1154 241.037 103.215 241.037 103.215C241.037 103.215 244.667 113.785 252.157 118.955L257.257 110.115C270.567 87.0554 291.237 69.1354 315.937 59.2154L323.157 56.3154H323.167Z" fill="white"/>
<path d="M342.097 78.5754C336.267 65.9154 327.727 60.3254 327.727 60.3254C276.317 71.9954 255.007 123.795 255.007 123.795C255.007 123.795 259.847 136.235 267.337 141.405L272.027 131.625C272.337 130.975 272.677 130.335 273.047 129.705C286.127 107.555 305.767 91.8954 329.557 82.0654C330.427 81.7054 331.327 81.4154 332.227 81.1754L342.087 78.5654L342.097 78.5754Z" fill="white"/>
<path d="M288.426 120.775C278.186 131.755 272.816 146.205 272.816 146.205L554.676 533.785C554.676 533.785 576.036 536.425 576.476 513.525L288.426 120.775Z" fill="#496EB5"/>
<path d="M327.816 89.6454C314.606 92.6154 292.146 115.405 292.146 115.405L578.686 507.135C578.686 507.135 615.996 524.145 615.456 483.685L327.816 89.6454Z" fill="#496EB5"/>
<path d="M344.497 84.4954C338.327 84.7454 332.637 87.3854 332.637 87.3854L618.657 480.055C618.657 480.055 622.837 485.005 632.637 484.785L344.497 84.4954Z" fill="#496EB5"/>
<path d="M559.337 539.645C559.337 539.645 584.437 540.475 581.467 513.385C581.467 513.385 620.107 524.535 620.437 487.215C620.437 487.215 626.797 491.175 634.057 489.855L656.187 577.595C656.187 577.595 635.817 572.645 630.867 593.335L559.337 539.635V539.645Z" fill="white"/>
<path d="M421.367 133.325V181.635L471.897 251.235L517.477 263.785L559.267 254.365L592.117 232.235L614.577 201.355L625.647 162.225L623.327 129.195L612.927 104.425L513.017 103.105L498.657 98.6454L430.117 120.775L421.367 133.325Z" fill="white"/>
<path d="M418.397 137.125L403.367 126.385L416.087 113.345L424.507 67.2654L457.367 29.7854L484.287 17.4054L510.837 7.98539L542.577 6.00539L579.567 30.1154L601.207 60.3354L613.757 89.6454L646.617 98.6454L651.077 114.545L623.987 128.205L612.927 104.425L513.017 103.105L499.647 98.8054L422.687 126.385L418.397 137.125Z" fill="#DE6B9B"/>
<path d="M526.786 171.975C523.316 170.245 518.346 173.155 515.676 178.495C513.006 183.825 513.666 189.555 517.136 191.295C520.606 193.025 525.576 190.115 528.246 184.775C530.916 179.445 530.256 173.715 526.786 171.975Z" fill="#212121"/>
<path d="M600.077 185.525C597.277 183.765 592.657 186.065 589.757 190.665C586.867 195.265 586.787 200.425 589.597 202.195C592.397 203.955 597.017 201.655 599.917 197.055C602.807 192.455 602.887 187.295 600.077 185.525Z" fill="#212121"/>
<path d="M502.177 610.185C497.997 607.875 489.187 602.475 463.317 605.235C463.317 605.235 517.037 519.475 450.327 453.195C450.327 453.195 466.177 436.465 468.827 417.745L368.977 278.695C368.977 278.695 336.387 283.535 353.017 262.845C369.637 242.145 425.457 194.035 403.437 172.235C381.417 150.435 333.857 236.965 326.157 257.005C318.457 277.045 326.157 288.055 327.917 290.255C329.677 292.455 344.207 308.755 378.337 299.725C378.337 299.725 327.417 423.795 365.647 448.895C365.647 448.895 377.947 504.055 373.657 521.395C369.367 538.735 358.467 543.195 345.917 544.345C333.367 545.495 320.487 541.705 315.367 538.735C310.247 535.765 299.847 527.345 291.587 537.905C283.327 548.475 276.887 557.225 273.917 565.975C270.947 574.725 268.307 583.645 274.907 588.595C281.517 593.545 291.747 583.805 292.907 582.155C294.067 580.505 304.627 565.475 306.777 559.695C306.777 559.695 354.997 584.305 388.027 549.125C404.357 531.735 400.417 495.215 392.267 462.725C392.267 462.725 403.877 468.915 427.217 463.415C427.217 463.415 477.837 504.855 452.857 571.695C450.177 578.875 446.727 585.735 442.737 592.285C436.357 602.765 422.377 628.435 439.217 627.125C439.217 627.125 493.827 627.565 503.507 625.255C513.197 622.945 506.367 612.485 502.187 610.175L502.177 610.185Z" fill="#212121"/>
<path d="M614.947 84.1754C609.907 67.4454 602.007 52.6254 591.427 40.0854C590.787 39.3254 590.137 38.6554 589.507 38.0054C588.747 37.2154 588.027 36.4754 587.527 35.7654C566.327 5.81538 543.297 0.145386 527.707 0.675386C513.207 1.16539 502.487 6.91539 499.367 8.78539C486.587 10.7854 463.107 17.0154 442.857 36.4354C414.547 63.5754 411.017 98.6854 410.767 111.915C406.377 115.415 397.667 123.635 401.147 131.365C404.227 138.215 410.737 140.405 416.277 140.665C414.137 157.495 417.097 178.995 417.237 180.015L417.377 180.995L417.917 181.825C419.067 183.615 446.307 225.855 457.947 239.155C461.357 243.045 465.487 246.645 470.007 249.865L515.437 309.645L519.587 299.695C520.607 300.405 527.957 308.355 533.417 314.315C541.357 322.975 551.097 332.425 556.227 342.985C563.067 357.065 568.787 373.155 561.567 388.285C547.697 417.345 569.167 424.975 575.607 423.655C582.047 422.335 582.927 422.805 589.697 415.755C599.797 405.245 598.617 378.785 593.987 361.395C589.367 344.005 572.077 310.065 547.637 293.555C523.197 277.045 516.807 266.705 516.807 266.705H516.787C518.707 266.795 520.677 266.865 522.727 266.865C543.887 266.865 571.507 260.565 600.637 230.405C633.927 195.935 629.537 145.815 627.387 131.155C630.267 130.255 634.407 128.875 638.597 127.155C650.537 122.285 656.047 117.685 656.497 112.265C658.107 92.4154 625.727 85.8154 614.947 84.1654V84.1754ZM605.947 85.5554C602.317 85.3154 598.817 85.1254 595.427 84.9654C594.367 72.2154 592.707 62.1054 590.887 54.2154C597.317 63.5654 602.357 74.0554 605.947 85.5554ZM580.187 40.9654C580.477 41.3654 580.777 41.7454 581.077 42.1154C585.527 50.2654 590.327 63.6954 591.667 84.7954C581.047 84.3554 571.637 84.2754 563.307 84.4654C550.897 23.3354 510.867 13.1854 510.837 13.1754C524.157 7.94539 553.217 2.86539 580.187 40.9654ZM415.807 131.645C413.337 131.415 410.607 130.465 409.347 127.675C408.847 126.575 412.547 121.625 417.857 117.835L419.767 116.475C419.767 116.475 443.977 100.045 491.627 89.7254C491.627 89.7254 464.337 89.5954 419.857 109.275C420.537 95.5454 424.987 66.0454 449.077 42.9354C458.127 34.2654 467.877 28.4754 476.857 24.6054C525.387 21.4054 531.337 78.9954 531.337 78.9954C527.167 32.4154 503.607 22.1654 487.487 20.7354C492.997 19.0654 497.867 18.1054 501.607 17.5654L502.617 17.4154C502.617 17.4154 547.517 24.1154 559.247 84.5854H559.257C512.437 86.1654 501.867 96.2554 501.867 96.2554C485.927 98.1554 438.457 114.255 426.647 120.615C419.337 124.555 416.737 128.905 415.807 131.655V131.645ZM594.157 224.155C557.347 262.265 523.207 258.555 510.357 257.155C497.217 255.725 476.027 246.175 464.707 233.235C454.377 221.425 429.987 183.935 426.017 177.805C425.407 172.915 422.897 150.605 426.077 136.745L427.657 129.775C427.657 129.775 427.967 127.615 436.387 123.245C444.807 118.875 497.237 103.595 501.867 103.095C501.867 103.095 506.737 106.725 521.517 107.305C536.297 107.885 551.907 103.255 592.027 105.735C598.747 106.145 604.567 106.725 609.617 107.405C609.667 107.465 614.107 112.885 617.027 124.745L617.867 128.875C617.987 129.455 629.347 187.715 594.157 224.155ZM638.177 117.545C634.177 119.355 629.277 121.205 624.187 122.745C622.687 116.765 618.177 108.825 618.147 108.765C634.607 111.885 639.377 116.055 638.187 117.545H638.177ZM643.997 114.535C642.527 110.555 636.567 105.285 608.627 101.695C579.067 97.8954 550.497 100.205 531.347 101.615C512.187 103.015 509.987 100.405 509.497 99.5754C508.997 98.7454 509.467 95.8354 523.667 92.7754C537.867 89.7154 569.387 88.4154 588.647 90.3854C607.907 92.3554 608.817 92.4654 608.817 92.4654L610.907 92.7054C623.197 94.1554 648.247 100.635 647.527 111.445C647.197 112.285 645.927 113.355 643.997 114.535Z" fill="#212121"/>
<path d="M1093.07 148.765C1108.84 135.965 1110.9 123.415 1110.9 123.415C1120.64 118.215 1126.34 103.105 1126.34 103.105L1146.98 76.6854C1146.98 76.6854 1164.48 54.7254 1127.16 20.2054C1105.39 0.0753975 1086.65 0.395397 1074.82 4.1554C1067.69 6.4254 1061.57 11.0954 1057.24 17.1954L1043.27 36.8854C1043.27 36.8854 1030.06 46.2954 1026.76 55.8754C1026.76 55.8754 1012.48 61.9854 1009.59 79.6554L715.646 481.595L679.316 635.505L805.926 545.675L1093.08 148.765H1093.07Z" fill="#212121"/>
<path d="M1122.21 96.3354C1122.21 96.3354 1098.1 48.2754 1051.7 37.5454L1068.05 16.3654C1068.76 15.4454 1069.67 14.6954 1070.72 14.1854C1076.41 11.4054 1095.81 4.1554 1117.43 21.1954C1143.19 41.5054 1145.5 64.2254 1141.87 70.6154C1138.24 77.0054 1122.22 96.3354 1122.22 96.3354H1122.21Z" fill="#DE6B9B"/>
<path d="M1035.46 56.3154C1041.29 43.6554 1046.8 42.4454 1046.8 42.4454C1098.21 54.1154 1117.59 103.215 1117.59 103.215C1117.59 103.215 1113.96 113.785 1106.47 118.955L1101.37 110.115C1088.06 87.0554 1067.39 69.1354 1042.69 59.2154L1035.47 56.3154H1035.46Z" fill="white"/>
<path d="M1016.53 78.5754C1022.36 65.9154 1030.9 60.3254 1030.9 60.3254C1082.31 71.9954 1103.62 123.795 1103.62 123.795C1103.62 123.795 1098.78 136.235 1091.29 141.405L1086.6 131.625C1086.29 130.975 1085.95 130.335 1085.58 129.705C1072.5 107.555 1052.86 91.8954 1029.07 82.0654C1028.2 81.7054 1027.3 81.4154 1026.4 81.1754L1016.54 78.5654L1016.53 78.5754Z" fill="white"/>
<path d="M1070.2 120.775C1080.44 131.755 1085.81 146.205 1085.81 146.205L803.946 533.785C803.946 533.785 782.586 536.425 782.146 513.525L1070.21 120.775H1070.2Z" fill="#496EB5"/>
<path d="M1030.81 89.6454C1044.02 92.6154 1066.48 115.405 1066.48 115.405L779.936 507.135C779.936 507.135 742.626 524.145 743.166 483.685L1030.81 89.6354V89.6454Z" fill="#496EB5"/>
<path d="M1014.13 84.4954C1020.3 84.7454 1025.99 87.3854 1025.99 87.3854L739.966 480.055C739.966 480.055 735.786 485.005 725.986 484.785L1014.13 84.4954Z" fill="#496EB5"/>
<path d="M799.287 539.645C799.287 539.645 774.187 540.475 777.157 513.385C777.157 513.385 738.517 524.535 738.187 487.215C738.187 487.215 731.827 491.175 724.567 489.855L702.437 577.595C702.437 577.595 722.807 572.645 727.757 593.335L799.287 539.635V539.645Z" fill="white"/>
<path d="M937.256 133.325V181.635L886.726 251.235L841.146 263.785L799.356 254.365L766.506 232.235L744.046 201.355L732.986 162.225L735.296 129.195L745.696 104.425L845.606 103.105L859.976 98.6454L928.506 120.775L937.256 133.325Z" fill="white"/>
<path d="M940.226 137.125L955.256 126.385L942.536 113.345L934.116 67.2654L901.256 29.7854L874.336 17.4054L847.786 7.98539L816.046 6.00539L779.056 30.1154L757.426 60.3354L744.876 89.6454L712.006 98.6454L707.546 114.545L734.636 128.205L745.696 104.425L845.606 103.105L858.986 98.8054L935.936 126.385L940.226 137.125Z" fill="#DE6B9B"/>
<path d="M831.836 171.975C835.306 170.245 840.276 173.155 842.946 178.495C845.616 183.825 844.956 189.555 841.486 191.295C838.016 193.025 833.046 190.115 830.376 184.775C827.706 179.445 828.366 173.715 831.836 171.975Z" fill="#212121"/>
<path d="M758.546 185.525C761.346 183.765 765.966 186.065 768.866 190.665C771.756 195.265 771.836 200.425 769.026 202.195C766.226 203.955 761.606 201.655 758.706 197.055C755.816 192.455 755.736 187.295 758.546 185.525Z" fill="#212121"/>
<path d="M856.446 610.185C860.626 607.875 869.436 602.475 895.306 605.235C895.306 605.235 841.586 519.475 908.296 453.195C908.296 453.195 892.446 436.465 889.796 417.745L989.646 278.695C989.646 278.695 1022.24 283.535 1005.61 262.845C988.986 242.145 933.166 194.035 955.186 172.235C977.206 150.435 1024.77 236.965 1032.47 257.005C1040.17 277.045 1032.47 288.055 1030.71 290.255C1028.95 292.455 1014.42 308.755 980.286 299.725C980.286 299.725 1031.21 423.795 992.976 448.895C992.976 448.895 980.676 504.055 984.966 521.395C989.256 538.735 1000.16 543.195 1012.71 544.345C1025.26 545.495 1038.14 541.705 1043.26 538.735C1048.38 535.765 1058.78 527.345 1067.04 537.905C1075.3 548.475 1081.74 557.225 1084.71 565.975C1087.68 574.725 1090.32 583.645 1083.72 588.595C1077.11 593.545 1066.88 583.805 1065.72 582.155C1064.56 580.505 1054 565.475 1051.85 559.695C1051.85 559.695 1003.63 584.305 970.596 549.125C954.266 531.735 958.206 495.215 966.356 462.725C966.356 462.725 954.746 468.915 931.406 463.415C931.406 463.415 880.786 504.855 905.766 571.695C908.446 578.875 911.896 585.735 915.886 592.285C922.266 602.765 936.246 628.435 919.406 627.125C919.406 627.125 864.796 627.565 855.116 625.255C845.426 622.945 852.256 612.485 856.436 610.175L856.446 610.185Z" fill="#212121"/>
<path d="M702.126 112.275C702.566 117.705 708.086 122.295 720.026 127.165C724.226 128.875 728.356 130.265 731.236 131.165C729.086 145.815 724.696 195.945 757.986 230.415C787.116 260.575 814.736 266.875 835.896 266.875C837.946 266.875 839.916 266.805 841.836 266.705H841.816C841.816 266.705 835.426 277.045 810.986 293.565C786.546 310.075 769.266 344.005 764.636 361.405C760.016 378.795 758.826 405.255 768.926 415.765C775.696 422.815 776.576 422.345 783.016 423.665C789.456 424.985 810.926 417.365 797.056 388.295C789.836 373.155 795.556 357.075 802.396 342.995C807.526 332.425 817.276 322.985 825.206 314.325C830.666 308.365 838.016 300.425 839.036 299.705L843.186 309.655L888.616 249.875C893.136 246.655 897.276 243.065 900.676 239.165C912.316 225.855 939.556 183.625 940.706 181.835L941.246 181.005L941.386 180.025C941.526 179.005 944.486 157.505 942.346 140.675C947.886 140.415 954.396 138.225 957.476 131.375C960.956 123.645 952.246 115.425 947.856 111.925C947.606 98.6954 944.076 63.5854 915.766 36.4454C895.516 17.0254 872.036 10.7954 859.256 8.79539C856.136 6.92539 845.416 1.17539 830.916 0.685392C815.326 0.145392 792.296 5.8154 771.086 35.7754C770.586 36.4854 769.866 37.2254 769.106 38.0154C768.476 38.6654 767.836 39.3354 767.186 40.0954C756.606 52.6354 748.706 67.4554 743.666 84.1854C732.896 85.8254 700.516 92.4354 702.116 112.285L702.126 112.275ZM767.726 54.2154C765.906 62.1054 764.246 72.2154 763.186 84.9654C759.796 85.1254 756.296 85.3254 752.666 85.5554C756.256 74.0554 761.296 63.5654 767.726 54.2154ZM847.776 13.1754C847.776 13.1754 807.716 23.3354 795.306 84.4654C786.966 84.2854 777.556 84.3654 766.946 84.7954C768.286 63.6954 773.076 50.2654 777.536 42.1154C777.846 41.7454 778.146 41.3654 778.426 40.9654C805.396 2.86539 834.466 7.93539 847.776 13.1754ZM931.956 120.605C920.146 114.245 872.676 98.1454 856.736 96.2454C856.736 96.2454 846.156 86.1454 799.346 84.5754H799.356C811.086 24.0954 855.986 17.3954 855.986 17.3954L856.996 17.5454C860.736 18.0954 865.606 19.0554 871.116 20.7154C854.996 22.1454 831.426 32.4054 827.266 78.9754C827.266 78.9754 833.216 21.3854 881.746 24.5854C890.726 28.4554 900.486 34.2454 909.526 42.9154C933.626 66.0254 938.066 95.5254 938.746 109.255C894.266 89.5754 866.976 89.7054 866.976 89.7054C914.616 100.025 938.836 116.455 938.836 116.455L940.746 117.815C946.056 121.605 949.746 126.555 949.256 127.655C947.996 130.455 945.266 131.395 942.796 131.625C941.876 128.875 939.266 124.515 931.956 120.585V120.605ZM740.736 128.885L741.576 124.755C744.496 112.895 748.936 107.465 748.986 107.415C754.036 106.735 759.856 106.165 766.576 105.745C806.706 103.265 822.306 107.895 837.086 107.315C851.866 106.735 856.736 103.105 856.736 103.105C861.356 103.595 913.796 118.875 922.216 123.255C930.636 127.635 930.946 129.785 930.946 129.785L932.526 136.755C935.706 150.615 933.196 172.925 932.586 177.815C928.616 183.945 904.236 221.435 893.896 233.245C882.576 246.185 861.386 255.735 848.246 257.165C835.396 258.565 801.256 262.275 764.446 224.165C729.256 187.735 740.616 129.475 740.736 128.885ZM740.466 108.775C740.436 108.825 735.926 116.775 734.426 122.755C729.336 121.215 724.436 119.375 720.436 117.555C719.236 116.065 724.006 111.895 740.476 108.775H740.466ZM711.086 111.455C710.366 100.645 735.416 94.1654 747.706 92.7154L749.796 92.4654C749.796 92.4654 750.706 92.3554 769.966 90.3854C789.226 88.4154 820.746 89.7254 834.946 92.7754C849.146 95.8254 849.616 98.7454 849.116 99.5754C848.616 100.405 846.416 103.015 827.266 101.615C808.106 100.215 779.546 97.8954 749.986 101.695C722.046 105.285 716.086 110.555 714.616 114.535C712.686 113.355 711.416 112.275 711.086 111.445V111.455Z" fill="#212121"/>
<path d="M727.917 684.715C721.697 684.965 714.507 685.235 707.847 684.775C687.237 683.345 681.777 681.635 681.297 676.435C680.727 670.315 687.987 668.425 707.377 663.365C713.927 661.655 726.727 658.845 733.397 655.895C743.137 651.605 733.347 649.065 731.167 648.465C721.517 645.795 709.537 648.125 696.987 651.025C683.317 654.185 672.437 659.665 655.237 658.065C651.427 657.705 642.737 655.335 642.727 648.875C642.717 643.715 645.557 642.585 659.367 638.175C667.487 635.575 678.987 635.585 679.317 635.505C670.297 637.515 655.827 642.945 653.497 647.115C652.877 648.225 653.467 649.685 654.707 649.965H654.747C659.977 651.205 682.807 648.975 695.507 646.045C711.187 642.425 727.397 638.675 741.407 646.715C746.127 649.425 746.767 652.635 746.467 654.865C745.517 662.005 734.517 665.595 709.637 672.085C707.787 672.565 705.777 673.095 703.757 673.635C702.747 673.905 702.867 675.375 703.907 675.465C705.297 675.585 706.807 675.695 708.457 675.815C777.887 680.645 821.757 656.505 822.197 656.265C820.507 657.225 785.987 678.025 727.907 684.735L727.917 684.715Z" fill="#212121"/>
<path d="M556.677 580.365C576.147 595.505 601.097 599.715 601.097 599.715C601.097 599.715 587.097 601.065 576.227 596.355C565.357 591.645 556.677 580.375 556.677 580.375V580.365Z" fill="#212121"/>
<path d="M556.247 594.545C569.867 610.735 585.897 607.795 585.897 607.795C585.897 607.795 577.207 606.955 569.077 602.665C560.947 598.385 556.247 594.545 556.247 594.545Z" fill="#212121"/>
<path d="M690.877 474.495C690.877 474.495 690.707 447.905 699.797 428.095C699.797 428.095 691.537 458.485 690.877 474.495Z" fill="#212121"/>
<path d="M728.356 455.015C728.356 455.015 733.856 425.455 754.696 402.665C754.696 402.665 733.556 439.825 728.356 455.015Z" fill="#212121"/>
<path d="M603.126 408.935C603.126 408.935 620.516 425.225 634.396 453.855C634.396 453.855 606.876 410.475 603.126 408.935Z" fill="#212121"/>
<path d="M278.357 601.375C274.387 601.135 272.827 597.415 272.827 597.415C272.827 597.415 277.037 601.925 285.187 598.955C285.187 598.955 283.757 601.705 278.357 601.375Z" fill="#212121"/>
<path d="M1056.66 524.865C1056.66 524.865 1068.72 521.235 1074.99 529.815C1074.99 529.815 1070.2 516.935 1056.66 524.865Z" fill="#212121"/>
<path d="M218.267 822.845L215.767 822.645C214.877 822.575 213.967 822.535 213.077 822.535C212.187 822.535 211.277 822.575 210.477 822.635C201.547 823.085 192.717 825.655 184.857 830.105C184.597 830.265 184.307 830.345 184.007 830.345C183.787 830.345 183.577 830.305 183.377 830.215C182.917 830.025 182.567 829.635 182.427 829.165C182.357 828.765 182.317 828.355 182.307 827.895C182.217 826.055 182.097 824.645 181.947 823.585L181.607 821.175L179.177 821.005C175.957 820.785 172.697 820.665 169.467 820.665C164.697 820.665 159.887 820.915 155.147 821.405L152.637 821.665L152.467 824.185C152.357 825.765 152.337 827.385 152.407 828.975C152.987 842.845 153.547 856.905 154.107 870.965L154.737 886.785C155.087 895.695 155.447 904.575 155.807 913.385V913.845C155.877 915.195 156.017 916.555 156.227 917.885L156.597 920.255L158.987 920.415C161.677 920.585 164.407 920.675 167.107 920.675C172.417 920.675 177.777 920.335 183.047 919.655L185.517 919.335L185.667 916.845C185.757 915.315 185.757 913.765 185.667 912.305C185.427 905.635 185.137 898.475 184.837 891.265L184.707 888.055C184.377 880.005 184.057 871.945 183.797 864.635C183.777 864.205 183.947 863.775 184.237 863.455C184.537 863.135 184.947 862.945 185.387 862.935C186.647 862.935 187.907 863.055 189.217 863.295L192.317 863.815L193.097 861.325C193.207 860.985 193.337 860.645 193.477 860.315L193.547 860.155L193.597 859.985C193.657 859.795 193.727 859.605 193.797 859.435C197.037 853.265 202.817 848.955 209.657 847.615L209.797 847.585L209.937 847.545C211.017 847.225 212.127 846.995 213.267 846.835C213.647 846.785 214.957 846.585 216.077 846.325L218.167 845.845L218.387 843.715C219.027 837.615 219.057 831.425 218.477 825.325L218.237 822.825L218.267 822.845Z" fill="#DE6B9B"/>
<path d="M942.687 887.925L941.236 886.585L939.437 887.395C938.396 887.865 937.366 888.395 936.366 888.975L934.517 889.955L934.426 890.015C929.676 893.005 924.227 894.965 918.667 895.685C918.597 895.685 918.527 895.685 918.457 895.685C917.037 895.685 915.707 895.135 914.697 894.145C913.617 893.085 913.037 891.615 913.097 890.125L915.107 846.025C915.137 845.305 915.617 844.705 916.257 844.525C916.747 844.455 918.836 844.155 920.806 843.905C922.526 843.685 924.186 843.475 924.426 843.435C925.886 843.245 927.487 842.965 928.717 842.685L930.967 842.175L931.056 839.875C931.276 833.945 930.877 827.975 929.847 822.135L929.437 819.785L927.056 819.655C925.976 819.595 924.977 819.565 924.087 819.565C923.657 819.565 923.217 819.565 922.827 819.585L917.986 819.735C917.586 819.735 917.207 819.575 916.887 819.225C916.567 818.905 916.397 818.455 916.417 818.005L917.387 796.485C917.457 795.275 917.457 793.855 917.387 792.615L917.236 790.155L914.797 789.815C908.137 788.895 901.357 788.425 894.637 788.425C893.397 788.425 892.157 788.445 890.917 788.475L888.347 788.545L888.017 791.085C887.827 792.525 887.717 793.985 887.687 795.405L887.037 818.825C887.017 819.695 886.317 820.405 885.447 820.425C884.877 820.445 883.277 820.475 881.507 820.515L875.417 820.645C874.357 820.665 873.097 820.755 871.977 820.875L869.377 821.165L869.306 823.785C869.096 831.595 869.517 839.485 870.547 847.245L870.897 849.915L873.587 849.845C874.847 849.815 876.287 849.705 877.537 849.535L884.306 848.645C884.386 848.645 884.467 848.635 884.537 848.635C884.947 848.635 885.337 848.785 885.647 849.055C886.007 849.375 886.207 849.845 886.187 850.325L886.067 854.625C885.717 867.055 885.357 879.915 885.077 891.825C884.877 896.815 885.997 901.785 888.357 906.265C893.117 914.765 901.727 920.545 911.417 921.725C913.267 921.935 915.136 922.045 916.996 922.045C929.286 922.045 941.006 917.505 950.116 909.225H950.187L951.047 908.425C952.277 907.275 953.447 906.045 954.517 904.755L956.027 902.925L954.597 901.035C951.037 896.315 947.016 891.895 942.676 887.905L942.687 887.925Z" fill="#496EB5"/>
<path d="M827.627 849.685C827.627 849.685 827.587 849.595 827.567 849.545L827.497 849.365C827.217 848.695 826.867 848.045 826.467 847.445L825.967 846.615C818.267 833.345 803.967 825.105 788.627 825.105C788.127 825.105 787.627 825.105 787.227 825.125C785.177 825.125 783.127 825.245 781.127 825.465C761.567 826.945 744.777 839.865 738.347 858.405L738.307 858.535C731.177 882.515 736.997 904.735 753.887 917.965C762.917 925.045 774.017 928.795 785.977 928.795C797.247 928.795 808.917 925.445 819.707 919.095C819.787 919.045 819.877 919.005 819.967 918.975L820.247 918.865L820.497 918.705C821.947 917.795 823.347 916.775 824.667 915.685L826.607 914.065L825.347 911.875C821.307 904.885 816.507 898.305 811.067 892.335L809.447 890.555L807.137 891.875C806.637 892.165 806.177 892.425 805.927 892.575C805.607 892.775 805.267 892.955 804.927 893.115L804.827 893.165L804.727 893.215C798.427 896.775 791.357 898.815 785.317 898.815C779.277 898.815 773.947 896.745 770.087 892.615C769.367 891.865 768.747 891.025 768.257 890.095L768.217 890.025L767.747 889.255C767.687 889.165 767.637 889.055 767.597 888.965C764.097 879.985 763.897 867.775 771.327 860.705C775.887 856.995 781.937 854.695 787.137 854.695C789.967 854.695 792.487 855.345 794.617 856.615C795.157 856.935 795.457 857.525 795.417 858.145C795.367 858.775 794.977 859.305 794.397 859.545L782.547 864.425C781.707 864.775 780.757 865.215 779.937 865.635L777.707 866.795L778.457 869.195C780.287 875.005 782.627 880.705 785.417 886.145L786.597 888.435L789.037 887.615C789.927 887.315 790.867 886.945 791.667 886.595C796.387 884.565 801.287 882.525 806.477 880.365L809.647 879.045C816.027 876.385 823.257 873.365 829.717 870.595C829.797 870.565 829.867 870.535 829.947 870.515L830.167 870.455L830.377 870.365C830.967 870.105 831.557 869.825 832.087 869.545L834.157 868.485L833.637 866.215C832.337 860.485 830.307 854.935 827.597 849.685H827.627Z" fill="#496EB5"/>
<path d="M690.877 834.515C690.857 833.065 690.767 831.605 690.597 830.185L690.327 827.855L687.997 827.555C682.187 826.815 676.277 826.445 670.427 826.445C668.217 826.445 665.977 826.495 663.767 826.605L660.907 826.745V829.435C660.807 829.825 660.557 830.165 660.227 830.385C659.957 830.565 659.637 830.665 659.317 830.665C659.177 830.665 659.047 830.645 658.967 830.625C655.237 829.595 651.387 829.085 647.527 829.085C635.307 829.085 623.607 834.295 615.447 843.345C602.017 857.825 597.267 878.555 603.057 897.445C609.347 917.735 630.287 926.985 647.077 926.985C651.047 926.985 654.877 926.505 658.457 925.555C658.597 925.515 658.737 925.505 658.887 925.505C659.247 925.505 659.597 925.625 659.877 925.835C660.287 926.135 660.527 926.605 660.537 927.155L660.597 928.735L660.617 928.885C661.057 932.075 660.497 935.265 659.017 938.125C658.997 938.155 658.977 938.175 658.957 938.195C654.457 943.715 645.977 944.635 639.157 945.375C638.057 945.495 636.987 945.615 635.957 945.745C632.467 945.925 628.927 946.015 625.427 946.015C621.037 946.015 616.597 945.875 612.197 945.585C612.137 945.585 612.077 945.585 612.027 945.565L611.877 945.535H611.727C610.917 945.475 610.107 945.445 609.307 945.445C608.787 945.445 608.267 945.455 607.747 945.475L605.527 945.565L604.967 947.715C603.357 953.935 602.427 960.335 602.207 966.755L602.127 969.165L604.467 969.765C606.107 970.185 607.807 970.525 609.537 970.785C620.627 972.355 629.477 973.085 637.377 973.085C662.007 973.085 677.987 965.605 686.267 950.135C689.537 943.555 691.147 936.185 690.907 928.905C690.737 913.625 690.827 897.095 690.907 882.505C690.987 867.395 691.087 850.265 690.877 834.525V834.515ZM629.647 892.865C625.427 885.245 625.317 876.105 629.367 868.385L629.447 868.225L629.507 868.065C631.307 863.365 635.047 859.685 639.767 857.945C641.857 857.435 644.017 857.165 646.167 857.165C650.577 857.165 654.967 858.265 658.837 860.345C659.367 860.635 659.697 861.185 659.697 861.805V892.335C659.697 892.605 659.637 892.865 659.517 893.085C659.117 893.825 655.317 900.325 643.487 900.325C637.887 900.325 632.717 897.535 629.637 892.865H629.647Z" fill="#496EB5"/>
<path d="M363.037 895.935L361.037 894.665L359.337 896.325C358.837 896.815 358.337 897.325 358.037 897.625L357.967 897.705C357.507 898.215 356.997 898.685 356.457 899.095L356.367 899.165L356.287 899.235C355.337 900.065 354.127 900.525 352.867 900.525C352.207 900.525 351.567 900.405 350.957 900.155C348.637 898.675 347.327 896.065 347.547 893.295V893.195V893.095C347.777 876.085 349.247 858.935 351.907 842.045L352.837 834.965C353.037 833.485 353.147 831.985 353.167 830.505L353.197 828.365L351.187 827.645C346.657 826.015 336.537 823.735 330.367 823.735C328.607 823.735 327.257 823.925 326.227 824.315L324.887 824.825L324.437 826.195C324.317 826.565 324.067 826.885 323.737 827.095C323.477 827.265 323.177 827.345 322.857 827.345C322.677 827.345 322.497 827.315 322.327 827.255C315.897 825.035 309.557 823.905 303.467 823.905C288.757 823.905 276.227 830.315 267.207 842.485C252.677 863.065 252.987 890.505 268.037 910.825C275.787 920.625 287.787 926.025 301.837 926.025C311.397 926.025 321.247 923.495 329.557 918.905C329.797 918.775 330.077 918.705 330.367 918.705C330.827 918.705 331.267 918.895 331.577 919.235L331.647 919.305C336.797 924.495 343.657 927.345 350.967 927.345C356.497 927.345 361.827 925.685 366.367 922.565C371.227 919.275 374.937 914.655 377.107 909.215L377.887 907.245L376.297 905.845C372.157 902.215 367.707 898.875 363.057 895.925L363.037 895.935ZM289.477 881.525V881.425V881.325C288.637 870.115 290.567 862.465 295.377 857.935C299.027 854.515 304.287 852.855 311.477 852.855C314.107 852.855 317.057 853.075 320.257 853.525C321.127 853.645 321.747 854.435 321.667 855.335C320.547 868.025 320.317 880.915 320.977 893.715C321.027 894.445 320.587 895.135 319.937 895.375C315.867 896.805 311.617 897.555 307.257 897.615C307.057 897.615 306.847 897.615 306.647 897.615C303.067 897.615 299.557 896.655 296.487 894.825C292.137 891.795 289.527 886.835 289.497 881.525H289.477Z" fill="#DE6B9B"/>
<path d="M1219.4 849.675C1219.4 849.675 1219.36 849.585 1219.34 849.535L1219.27 849.355C1218.99 848.685 1218.64 848.035 1218.24 847.435L1217.74 846.605C1210.04 833.335 1195.74 825.095 1180.4 825.095C1179.9 825.095 1179.4 825.095 1179 825.115C1176.95 825.115 1174.9 825.235 1172.9 825.455C1153.34 826.935 1136.55 839.855 1130.12 858.395L1130.08 858.525C1122.95 882.505 1128.77 904.725 1145.66 917.955C1154.69 925.035 1165.79 928.785 1177.75 928.785C1189.02 928.785 1200.69 925.435 1211.48 919.085C1211.56 919.035 1211.65 918.995 1211.74 918.965L1212.02 918.855L1212.27 918.695C1213.72 917.785 1215.12 916.765 1216.44 915.675L1218.38 914.055L1217.12 911.865C1213.08 904.875 1208.28 898.295 1202.84 892.325L1201.22 890.545L1198.91 891.865C1198.41 892.155 1197.95 892.415 1197.7 892.565C1197.38 892.765 1197.04 892.945 1196.7 893.105L1196.6 893.155L1196.5 893.205C1190.2 896.765 1183.13 898.805 1177.09 898.805C1171.05 898.805 1165.72 896.735 1161.86 892.605C1161.14 891.855 1160.52 891.015 1160.03 890.085L1159.99 890.015L1159.52 889.245C1159.46 889.155 1159.41 889.045 1159.37 888.955C1155.87 879.975 1155.67 867.765 1163.1 860.695C1167.66 856.985 1173.71 854.685 1178.91 854.685C1181.74 854.685 1184.26 855.335 1186.39 856.605C1186.93 856.925 1187.23 857.515 1187.19 858.135C1187.14 858.765 1186.75 859.295 1186.17 859.535L1174.32 864.415C1173.48 864.765 1172.53 865.205 1171.71 865.625L1169.48 866.785L1170.23 869.185C1172.06 874.995 1174.4 880.705 1177.19 886.135L1178.37 888.425L1180.81 887.605C1181.7 887.305 1182.64 886.935 1183.44 886.585C1188.16 884.555 1193.06 882.515 1198.25 880.355L1201.42 879.035C1207.79 876.375 1215.01 873.365 1221.49 870.585C1221.57 870.555 1221.64 870.525 1221.72 870.505L1221.94 870.445L1222.15 870.355C1222.74 870.095 1223.33 869.815 1223.86 869.535L1225.93 868.475L1225.41 866.205C1224.11 860.475 1222.08 854.925 1219.37 849.665L1219.4 849.675Z" fill="#496EB5"/>
<path d="M1334.1 825.345L1333.86 822.845L1331.36 822.645C1330.47 822.575 1329.56 822.535 1328.67 822.535C1327.78 822.535 1326.87 822.575 1326.07 822.635C1317.14 823.085 1308.31 825.655 1300.45 830.105C1300.19 830.265 1299.9 830.345 1299.6 830.345C1299.38 830.345 1299.17 830.305 1298.97 830.215C1298.51 830.025 1298.16 829.635 1298.02 829.165C1297.95 828.765 1297.91 828.355 1297.9 827.895C1297.81 826.065 1297.69 824.655 1297.54 823.585L1297.21 821.175L1294.78 821.005C1291.56 820.785 1288.3 820.665 1285.07 820.665C1280.3 820.665 1275.49 820.915 1270.75 821.405L1268.24 821.665L1268.07 824.185C1267.96 825.765 1267.94 827.375 1268.01 828.975C1268.59 842.855 1269.15 856.925 1269.71 870.995L1270.34 886.945C1270.69 895.805 1271.04 904.625 1271.4 913.385V913.855C1271.47 915.205 1271.61 916.565 1271.82 917.895L1272.2 920.265L1274.59 920.425C1277.28 920.595 1280.01 920.685 1282.71 920.685C1288.02 920.685 1293.38 920.345 1298.65 919.665L1301.12 919.345L1301.26 916.855C1301.35 915.325 1301.35 913.785 1301.26 912.325C1301.02 905.655 1300.73 898.495 1300.43 891.285L1300.3 888.075C1299.97 880.025 1299.65 871.965 1299.39 864.655C1299.37 864.225 1299.54 863.795 1299.83 863.475C1300.13 863.155 1300.54 862.965 1300.98 862.955C1302.24 862.955 1303.5 863.075 1304.81 863.315L1307.91 863.835L1308.69 861.345C1308.8 861.005 1308.93 860.665 1309.07 860.335L1309.14 860.175L1309.19 860.005C1309.25 859.815 1309.32 859.625 1309.39 859.455C1312.63 853.285 1318.41 848.975 1325.25 847.635L1325.39 847.605L1325.53 847.565C1326.61 847.245 1327.72 847.015 1328.86 846.855C1329.24 846.805 1330.55 846.605 1331.67 846.345L1333.76 845.865L1333.98 843.735C1334.62 837.635 1334.65 831.445 1334.07 825.345H1334.1Z" fill="#496EB5"/>
<path d="M536.697 816.525L534.227 815.915L533.217 818.255C532.667 819.545 532.167 820.875 531.747 822.215L525.567 842.075C522.627 851.565 519.657 861.125 516.777 870.305C516.567 870.985 515.937 871.455 515.177 871.465C514.487 871.465 513.877 871.025 513.647 870.355L496.987 821.775L496.947 821.675C496.487 820.275 495.917 818.885 495.257 817.545L494.497 815.995L492.777 815.875C488.657 815.585 484.467 815.435 480.337 815.435C476.207 815.435 471.617 815.595 467.297 815.915L465.527 816.045L464.787 817.655C464.107 819.135 463.527 820.675 463.047 822.225C460.747 829.715 458.337 837.435 455.927 845.165L455.887 845.305C453.267 853.705 450.637 862.125 448.137 870.275C447.927 870.955 447.307 871.425 446.557 871.445C445.857 871.445 445.227 871.005 444.997 870.335C442.027 861.855 438.977 852.905 436.017 844.245L435.787 843.575C433.277 836.225 430.777 828.905 428.307 821.805L428.267 821.695L428.227 821.605C427.747 820.215 427.277 819.035 426.827 818.095L425.797 815.895L423.427 816.455C415.597 818.295 407.897 820.875 400.537 824.115L398.227 825.135L398.837 827.585C399.157 828.895 399.567 830.205 400.007 831.405C407.937 854.565 416.057 878.195 423.997 901.325L428.577 914.665C429.077 916.125 429.677 917.585 430.367 918.995L431.127 920.535L432.837 920.665C437.277 920.995 441.797 921.155 446.247 921.155C451.347 921.155 456.497 920.935 461.577 920.515L463.357 920.365L464.077 918.735C464.697 917.315 465.237 915.835 465.657 914.385C468.927 904.025 472.317 893.085 475.587 882.515L479.127 871.105C479.337 870.425 479.967 869.965 480.627 869.955C481.367 869.955 482.027 870.425 482.267 871.075C485.017 879.085 488.087 887.995 491.097 896.755L497.287 914.715C497.797 916.205 498.397 917.665 499.087 919.065L499.867 920.655L501.627 920.745C505.907 920.955 510.257 921.065 514.547 921.065C519.747 921.065 525.017 920.905 530.207 920.595L532.027 920.485L532.767 918.825C533.407 917.385 533.957 915.885 534.377 914.415C539.047 899.425 543.737 884.365 548.407 869.325L560.297 831.135C560.627 830.055 560.957 828.765 561.197 827.575L561.677 825.185L559.437 824.225C552.087 821.075 544.437 818.495 536.687 816.575L536.697 816.525Z" fill="#DE6B9B"/>
<path d="M108.307 849.625C105.707 801.395 77.8367 791.705 33.6967 791.705C29.6967 791.705 25.4767 791.785 20.7767 791.945C18.1267 792.035 14.7467 792.175 11.9967 792.485L9.66672 792.745L9.36672 795.075C9.16672 796.605 9.04672 798.155 9.01672 799.675L6.36672 914.675C6.32672 916.065 6.36672 917.495 6.47672 918.895L6.66672 921.335L9.09672 921.635C17.1567 922.635 25.3667 923.135 33.4867 923.135C36.3867 923.135 39.3267 923.075 42.1367 922.945L45.5067 922.895C66.4767 922.645 82.4467 916.825 92.9667 905.595L97.6867 900.545H97.0767C105.687 888.395 109.457 871.305 108.307 849.615V849.625ZM36.7967 891.135C37.1167 879.075 37.4067 866.335 37.6867 854.015L38.3867 823.085C38.4067 822.235 39.0667 821.545 39.9067 821.485C43.2867 821.235 46.2667 821.105 49.0167 821.105C59.7367 821.105 66.5467 823.035 71.0967 827.375C76.7767 832.785 78.9267 841.665 78.5367 858.025C78.1867 872.355 76.7967 882.315 70.9767 887.745C66.8567 891.585 60.6867 893.155 49.6767 893.155C46.0067 893.155 41.8967 892.985 38.3667 892.825C37.4767 892.785 36.7767 892.025 36.7967 891.135Z" fill="#DE6B9B"/>
<path d="M1086.88 901.865C1086.4 879.985 1085.79 852.755 1065.88 839.925C1058.49 835.365 1050 832.955 1041.32 832.955C1036.8 832.955 1032.3 833.615 1027.89 834.925C1027.82 834.945 1027.75 834.965 1027.68 834.975L1027.49 835.015C1027.36 835.045 1027.23 835.065 1027.09 835.065C1026.74 835.065 1026.4 834.955 1026.12 834.745C1025.73 834.455 1025.49 834.005 1025.47 833.495C1025.3 829.415 1025.17 825.275 1025.03 821.105L1025 820.245C1024.78 813.285 1024.53 805.395 1024.01 797.975V795.255L1021.28 795.015C1017.78 794.705 1014.22 794.545 1010.7 794.545C1007.18 794.545 1003.62 794.705 1000.12 795.015L997.617 795.235L997.397 797.735C997.257 799.315 997.207 800.925 997.237 802.505C997.507 817.665 997.697 833.065 997.887 847.955C998.197 872.515 998.517 897.915 999.187 923.135V925.905L1001.96 926.125C1005.23 926.385 1008.54 926.515 1011.82 926.515C1016.53 926.515 1021.28 926.245 1025.96 925.715L1028.48 925.425L1028.62 922.885C1028.7 921.415 1028.7 919.935 1028.62 918.515C1028.44 913.615 1028.25 908.635 1028.07 903.625L1027.52 888.815C1027.27 882.035 1027.02 875.305 1026.8 868.775C1026.78 868.345 1026.94 867.925 1027.18 867.665C1031.06 863.695 1036.47 861.425 1042.02 861.425C1042.43 861.425 1042.85 861.435 1043.28 861.465C1046.55 861.645 1049.67 862.965 1052.07 865.185L1052.15 865.255C1061.92 873.645 1061.98 890.785 1062.03 905.915V906.175C1062.05 910.505 1062.07 914.605 1062.29 918.425V918.905C1062.3 920.495 1062.35 921.735 1062.42 922.675L1062.6 924.995L1064.9 925.395C1069.88 926.255 1074.97 926.685 1080.03 926.685C1081.1 926.685 1082.18 926.665 1083.25 926.625L1085.76 926.535L1086.11 924.045C1086.32 922.525 1086.49 920.715 1086.56 919.195C1086.75 914.175 1087 906.935 1086.89 902.105V901.845L1086.88 901.865Z" fill="#496EB5"/>
<path d="M115.347 924.855C103.607 937.385 86.1366 943.875 63.3566 944.155L59.9966 944.205C56.6966 944.245 53.2566 944.295 49.7966 944.295C40.7766 944.515 31.7566 943.825 22.8666 942.235C22.0166 942.055 21.2166 941.665 20.5366 941.115L2.73657 926.175L2.69657 926.125C2.22657 925.705 1.82657 925.205 1.52657 924.645C1.44657 924.505 1.37657 924.355 1.29657 924.205C0.976569 923.555 0.736569 922.875 0.566569 922.165C0.556569 922.105 0.506569 922.055 0.506569 921.975C0.306569 921.015 0.176569 920.045 0.106569 919.065C0.0865685 918.805 0.0565685 918.535 0.0565685 918.255C0.0165685 917.135 -0.0234315 915.925 0.0165685 914.535L2.66657 799.575C2.68657 798.235 2.76657 797.055 2.86657 795.945C2.89657 795.645 2.92657 795.355 2.95657 795.075C3.04657 794.235 3.18657 793.415 3.36657 792.595C3.39657 792.455 3.41657 792.295 3.44657 792.165C3.63657 791.425 3.88657 790.695 4.20657 790.005C4.28657 789.825 4.37657 789.685 4.45657 789.545C4.70657 789.095 4.99657 788.675 5.34657 788.295C5.40657 788.235 5.47657 788.095 5.51657 788.065C5.54657 788.035 5.59657 788.015 5.62657 787.975C5.86657 787.765 6.12657 787.575 6.40657 787.415C6.52657 787.325 6.65657 787.245 6.78657 787.175C7.22657 786.955 7.69657 786.805 8.17657 786.715C12.2666 786.075 16.3966 785.725 20.5266 785.675C22.1366 785.615 23.7366 785.575 25.3366 785.535L26.8066 785.505C27.9266 785.465 29.0466 785.445 30.1766 785.445H36.7866C38.0166 785.455 39.2366 785.475 40.4566 785.515H41.5366C43.0866 785.565 44.6366 785.625 46.1866 785.705L47.3966 785.775C48.5366 785.845 49.6766 785.925 50.8166 786.015C51.3566 786.055 51.8766 786.105 52.4066 786.155C53.4266 786.245 54.4366 786.345 55.4466 786.465L57.0366 786.655C58.0966 786.785 59.1466 786.935 60.1966 787.095C60.6366 787.165 61.0766 787.225 61.5166 787.285C62.9766 787.525 64.4166 787.785 65.8466 788.075C66.0366 788.115 66.2166 788.155 66.3966 788.195C67.6266 788.455 68.8366 788.735 70.0366 789.045C70.4966 789.165 70.9266 789.295 71.3966 789.415C72.3466 789.675 73.2566 789.935 74.1866 790.225C74.6666 790.375 75.1666 790.535 75.6266 790.685C76.5266 790.985 77.4166 791.305 78.2966 791.645C78.7266 791.805 79.1566 791.965 79.5866 792.135C80.6966 792.575 81.7766 793.055 82.8466 793.555C83.0166 793.635 83.1966 793.705 83.3666 793.795C84.5866 794.385 85.7866 795.015 86.9466 795.695C87.2866 795.885 87.6166 796.105 87.9566 796.305C88.7866 796.805 89.5966 797.315 90.3966 797.855C90.7966 798.125 91.1866 798.405 91.5766 798.685C92.3266 799.215 93.0166 799.765 93.7166 800.335C93.9566 800.525 94.1866 800.675 94.4166 800.875L112.217 815.815C123.577 825.345 131.077 840.485 132.357 864.255C133.777 890.885 128.047 911.295 115.307 924.895L115.347 924.855ZM90.7666 903.555C101.717 891.885 106.587 873.795 105.307 849.785C102.687 801.095 74.7966 793.105 20.8766 794.935C18.1566 795.025 14.9266 795.165 12.3366 795.455C12.1466 796.875 12.0366 798.305 12.0066 799.735L9.35657 914.755C9.31657 916.055 9.35657 917.355 9.45657 918.655C20.2766 919.995 31.1966 920.425 42.0866 919.945L45.4666 919.895C65.5966 919.655 80.8366 914.145 90.7766 903.545H90.7666V903.555ZM73.1666 825.215C79.5266 831.275 81.9566 840.805 81.5366 858.115C81.1666 873.225 79.6166 883.815 73.0266 889.955C67.7066 894.905 60.0566 896.165 49.6866 896.165C46.1866 896.165 42.3666 896.025 38.2366 895.825C35.7066 895.715 33.7366 893.595 33.8066 891.065C34.1666 877.375 34.4866 863.045 34.8066 848.875L35.3966 823.025C35.4566 820.635 37.3166 818.685 39.6966 818.505C57.1066 817.205 66.8166 819.155 73.1866 825.215H73.1666ZM72.2366 857.885C72.2766 856.195 72.2866 854.625 72.2466 853.095C72.2466 852.635 72.2066 852.165 72.2066 851.705C72.1866 850.695 72.1566 849.745 72.1066 848.845C72.0766 848.325 72.0366 847.845 71.9966 847.355C71.9366 846.565 71.8666 845.795 71.7866 845.065C71.7366 844.605 71.6466 844.075 71.5966 843.675C71.5366 843.265 71.4666 842.885 71.4066 842.505C68.3966 842.325 65.3766 842.305 62.3566 842.465L61.8666 864.035C61.7066 871.285 61.5366 878.575 61.3766 885.795C61.5066 885.765 61.6166 885.725 61.7466 885.685C62.5066 885.475 63.2566 885.205 63.9766 884.875C64.1966 884.775 64.4166 884.675 64.6366 884.555C65.3666 884.175 66.0566 883.715 66.6766 883.165C66.9366 882.905 67.1766 882.625 67.4066 882.325C67.6166 882.105 67.8066 881.865 67.9866 881.625C68.1966 881.305 68.3866 880.975 68.5566 880.635C68.7266 880.345 68.8766 880.135 69.0466 879.765C69.2266 879.385 69.3766 878.935 69.5366 878.515C69.6766 878.165 69.8166 877.845 69.9466 877.455C70.0966 876.975 70.2266 876.425 70.3666 875.895C70.4766 875.485 70.5866 875.125 70.6866 874.655C70.8166 874.065 70.9166 873.395 71.0266 872.755C71.1066 872.295 71.2066 871.865 71.2766 871.365C71.3766 870.665 71.4566 869.865 71.5466 869.105C71.6066 868.565 71.6866 868.065 71.7266 867.485C71.8166 866.575 71.8666 865.555 71.9366 864.555C71.9666 864.035 72.0166 863.565 72.0466 863.015C72.1266 861.405 72.1966 859.715 72.2366 857.905H72.2566L72.2366 857.885Z" fill="#212121"/>
<path d="M241.986 862.315C241.836 863.075 241.506 863.785 241.006 864.385C238.576 866.635 235.426 867.935 232.116 868.065C231.276 868.155 230.446 868.315 229.626 868.525C224.606 869.435 220.196 872.395 217.456 876.695C217.326 877.075 217.176 877.445 217.026 877.805C216.956 878.095 216.866 878.375 216.746 878.645C216.396 880.475 215.506 882.165 214.186 883.485C213.866 883.755 213.506 883.975 213.116 884.155C211.516 884.825 209.766 885.045 208.046 884.815C208.276 891.005 208.546 897.585 208.816 904.145C209.136 911.995 209.456 919.835 209.706 926.985C210.076 933.115 209.766 939.625 204.596 940.465C197.736 941.465 190.816 941.975 183.886 941.995C180.236 942.045 176.576 941.795 172.966 941.245C172.016 941.045 171.126 940.615 170.386 939.995L152.586 925.055C152.416 924.915 152.266 924.755 152.126 924.595C151.826 924.255 151.576 923.885 151.366 923.485C151.316 923.395 151.286 923.275 151.226 923.185C151.056 922.845 150.896 922.495 150.766 922.135C150.696 921.955 150.656 921.755 150.596 921.565C150.506 921.265 150.396 920.965 150.316 920.635C150.256 920.415 150.236 920.245 150.176 919.955C150.116 919.655 150.036 919.315 149.996 919.065C149.956 918.815 149.936 918.635 149.896 918.345C149.856 918.065 149.796 917.705 149.776 917.495C149.756 917.285 149.726 917.095 149.726 916.895C149.696 916.605 149.646 916.305 149.646 916.035V915.575C149.626 915.305 149.596 915.015 149.596 914.775V913.805L149.556 913.775C149.056 901.585 148.566 889.255 148.086 876.895C147.456 860.975 146.826 845.025 146.166 829.315C146.106 827.875 146.106 826.625 146.136 825.455C146.136 825.165 146.166 824.865 146.166 824.585C146.196 822.775 146.536 820.975 147.166 819.285C147.236 819.135 147.306 818.975 147.386 818.825C147.656 818.245 148.026 817.715 148.466 817.255C149.126 816.625 149.946 816.175 150.826 815.965C159.756 813.525 180.116 814.825 182.406 814.985H182.566C182.926 815.015 183.286 815.095 183.626 815.215C184.256 815.435 184.846 815.765 185.356 816.195H185.396L190.536 820.505C191.006 820.345 191.526 820.205 191.986 820.045C192.636 819.825 193.286 819.605 193.946 819.395C194.966 819.075 196.006 818.795 197.066 818.525C197.716 818.355 198.356 818.185 199.016 818.035C200.186 817.765 201.376 817.555 202.566 817.355C203.146 817.255 203.706 817.135 204.286 817.055C206.076 816.795 207.876 816.585 209.696 816.465C209.806 816.445 210.056 816.415 210.396 816.375L210.756 816.345C211.046 816.315 211.356 816.265 211.746 816.265C211.946 816.235 212.166 816.235 212.386 816.235C212.766 816.205 213.156 816.205 213.576 816.205H214.396C214.826 816.205 215.266 816.245 215.726 816.275C216.016 816.305 216.306 816.325 216.596 816.355C217.086 816.405 217.576 816.495 218.046 816.595C218.306 816.645 218.576 816.685 218.836 816.745C219.436 816.895 220.026 817.085 220.596 817.325C220.706 817.375 220.826 817.395 220.926 817.445C221.516 817.705 222.066 818.045 222.566 818.455L240.376 833.395C240.986 833.895 241.476 834.535 241.796 835.255C241.926 835.565 242.026 835.885 242.096 836.215C243.376 844.885 243.346 853.695 241.996 862.345L241.986 862.315ZM215.526 825.635C213.896 825.505 212.266 825.505 210.636 825.635C202.126 826.065 193.836 828.475 186.426 832.675C185.166 833.445 183.606 833.565 182.246 833.005C180.886 832.445 179.866 831.275 179.506 829.845C179.396 829.255 179.336 828.665 179.316 828.065C179.216 826.165 179.106 824.885 178.986 824.015C171.156 823.465 163.286 823.595 155.476 824.405C155.376 825.895 155.356 827.385 155.416 828.865C156.076 844.585 156.706 860.545 157.336 876.475C157.826 888.825 158.306 901.155 158.806 913.335V913.715C158.866 914.965 158.996 916.205 159.186 917.435C167.026 917.945 174.886 917.695 182.676 916.705C182.756 915.285 182.756 913.865 182.676 912.455C182.416 905.215 182.096 897.395 181.776 889.545C181.436 881.055 181.086 872.505 180.816 864.785C180.776 863.555 181.216 862.355 182.056 861.455C182.896 860.555 184.066 860.025 185.296 859.975C186.786 859.975 188.266 860.105 189.726 860.375L190.256 860.465C190.396 860.015 190.566 859.575 190.756 859.135C190.856 858.805 190.986 858.475 191.126 858.155C194.766 851.165 201.386 846.215 209.106 844.705C210.336 844.345 211.586 844.075 212.856 843.905C213.546 843.805 214.606 843.635 215.426 843.445C216.046 837.535 216.076 831.575 215.506 825.655L215.526 825.635Z" fill="#212121"/>
<path d="M401.587 921.755C401.807 927.075 396.747 936.325 387.857 942.605C382.247 946.545 375.547 948.635 368.687 948.615C360.977 948.665 353.507 946.005 347.557 941.095L347.357 940.925C329.027 949.685 304.097 950.275 287.187 936.095L269.377 921.155C268.667 920.555 267.997 919.885 267.307 919.235C266.927 918.865 266.517 918.535 266.147 918.155C265.037 917.015 263.977 915.825 262.997 914.575C246.357 892.105 246.037 861.485 262.207 838.675C263.097 837.485 264.007 836.345 264.957 835.245C265.267 834.885 265.607 834.565 265.927 834.215C266.577 833.515 267.227 832.785 267.907 832.115C267.967 832.055 267.967 832.035 268.077 831.935C268.187 831.825 268.317 831.745 268.427 831.645C269.897 830.235 271.447 828.915 273.077 827.685C273.257 827.545 273.417 827.405 273.607 827.275C275.247 826.085 276.947 825.005 278.717 824.015C279.037 823.835 279.357 823.655 279.677 823.485C281.427 822.555 283.227 821.735 285.077 821.025C285.397 820.895 285.727 820.795 286.047 820.675C287.977 819.965 289.947 819.385 291.937 818.925C292.057 818.895 292.177 818.885 292.297 818.855C294.297 818.425 296.307 818.115 298.337 817.925C298.617 817.895 298.897 817.835 299.177 817.835C301.257 817.675 303.337 817.635 305.427 817.705C305.827 817.715 306.217 817.755 306.627 817.755C308.767 817.865 310.897 818.095 313.017 818.435C313.367 818.495 313.707 818.565 314.057 818.625C316.367 819.025 318.647 819.555 320.907 820.195C321.417 819.765 321.967 819.395 322.557 819.085C331.067 814.605 352.867 821.215 356.207 822.975C356.537 823.155 356.847 823.365 357.137 823.595C357.177 823.625 357.217 823.645 357.257 823.675L375.057 838.615C376.777 840.065 377.927 842.985 376.847 850.755L375.917 857.845C374.307 869.885 372.657 882.225 371.947 894.315L372.047 894.395C373.747 895.595 375.487 896.905 377.117 898.255L377.287 898.395L395.087 913.325C398.597 916.295 401.427 919.365 401.557 921.735L401.587 921.755ZM374.297 908.105C370.267 904.565 365.967 901.345 361.427 898.465C360.957 898.925 360.477 899.415 360.187 899.705C359.597 900.355 358.947 900.955 358.247 901.485C355.857 903.585 352.467 904.115 349.557 902.825C346.167 900.785 344.227 897.005 344.537 893.065C344.767 875.845 346.237 858.675 348.927 841.665L349.857 834.575C350.047 833.215 350.147 831.845 350.167 830.475C344.487 828.425 330.967 825.725 327.287 827.125C326.947 828.165 326.257 829.045 325.337 829.625C324.147 830.375 322.677 830.545 321.347 830.085C300.517 822.875 281.657 828.025 269.657 844.205C255.897 863.685 256.197 889.795 270.387 908.955C284.357 926.615 310.587 925.945 328.107 916.265C328.797 915.885 329.577 915.685 330.357 915.695C331.657 915.695 332.887 916.235 333.767 917.185C342.017 925.495 355.027 926.715 364.677 920.075C369.017 917.135 372.377 912.965 374.317 908.095L374.297 908.105ZM320.657 850.535C323.117 850.885 324.867 853.105 324.627 855.585C323.517 868.185 323.287 880.845 323.937 893.485C324.087 895.555 322.847 897.475 320.897 898.195C316.527 899.725 311.947 900.545 307.317 900.605C302.927 900.745 298.597 899.615 294.827 897.355C289.617 893.775 286.497 887.875 286.457 881.555C285.537 869.375 287.787 860.935 293.297 855.755C298.997 850.405 307.707 848.765 320.647 850.555L320.657 850.535ZM314.437 890.375C314.337 888.265 314.277 886.135 314.247 884.015V883.325C313.657 885.705 313.367 888.145 313.377 890.605C313.747 890.525 314.117 890.465 314.437 890.385V890.375Z" fill="#212121"/>
<path d="M584.127 847.855L572.237 886.045C567.567 901.095 562.877 916.145 558.227 931.015C556.797 936.055 554.307 941.745 549.857 941.595C539.057 942.365 528.207 942.385 517.397 941.655H517.307C516.077 941.655 514.887 941.195 513.977 940.375L496.177 925.435C496.107 925.375 496.067 925.295 495.997 925.225C495.387 924.675 494.857 924.055 494.407 923.365C494.337 923.265 494.277 923.145 494.207 923.045C493.727 922.265 493.287 921.465 492.917 920.635C492.897 920.585 492.847 920.545 492.847 920.505C491.737 924.045 490.627 927.575 489.537 931.015C488.097 936.055 485.877 941.845 481.127 941.575C475.517 941.955 468.547 942.345 461.837 942.345C457.467 942.385 453.107 942.155 448.767 941.635C447.507 941.675 446.277 941.225 445.347 940.385L427.547 925.445C427.477 925.385 427.417 925.285 427.347 925.225C426.927 924.845 426.547 924.425 426.207 923.975C426.137 923.885 426.067 923.815 426.007 923.725C425.577 923.115 425.187 922.475 424.837 921.825C424.737 921.635 424.647 921.445 424.547 921.245C424.277 920.705 424.017 920.145 423.777 919.565C423.687 919.355 423.597 919.145 423.507 918.925C423.207 918.175 422.917 917.405 422.657 916.635L418.077 903.305C410.127 880.175 402.017 856.535 394.117 833.485C393.887 832.895 393.667 832.265 393.457 831.625C393.397 831.435 393.337 831.235 393.277 831.035C393.137 830.595 393.007 830.165 392.887 829.705C392.827 829.455 392.767 829.215 392.707 828.975C392.607 828.565 392.517 828.175 392.447 827.775C392.397 827.515 392.367 827.265 392.337 827.015C392.287 826.635 392.257 826.265 392.227 825.895V825.155C392.227 824.805 392.257 824.455 392.297 824.105C392.327 823.905 392.347 823.645 392.397 823.435C392.477 823.095 392.577 822.755 392.717 822.435C392.777 822.255 392.847 822.075 392.927 821.895C393.137 821.505 393.387 821.145 393.697 820.815C393.757 820.745 393.797 820.665 393.857 820.595C394.287 820.175 394.787 819.835 395.327 819.575C404.877 815.065 414.947 811.765 425.317 809.755C426.017 809.695 426.717 809.765 427.387 809.975C427.567 810.025 427.737 810.095 427.907 810.165C428.387 810.365 428.847 810.625 429.257 810.935C429.337 810.995 429.437 811.015 429.517 811.085L447.327 826.025C449.557 828.395 451.167 831.285 452.007 834.435C452.037 834.495 452.087 834.575 452.087 834.645L452.367 835.455L452.687 834.435C454.167 829.685 455.637 824.975 457.057 820.325C457.377 819.295 457.697 818.365 458.017 817.505C458.117 817.225 458.227 816.985 458.337 816.715C458.557 816.155 458.787 815.615 459.017 815.125C459.137 814.845 459.267 814.615 459.397 814.375C459.607 813.945 459.847 813.555 460.077 813.185C460.207 812.985 460.337 812.775 460.467 812.585C460.707 812.265 460.967 811.955 461.237 811.655C461.327 811.555 461.407 811.425 461.507 811.335C461.527 811.315 461.557 811.305 461.577 811.285C462.027 810.855 462.537 810.505 463.097 810.235C463.217 810.185 463.337 810.135 463.457 810.095C464.007 809.875 464.597 809.755 465.197 809.735C475.067 808.865 484.987 808.845 494.857 809.685C495.437 809.705 496.007 809.815 496.547 810.025C496.717 810.085 496.877 810.185 497.037 810.265C497.387 810.435 497.717 810.635 498.027 810.865C498.097 810.925 498.187 810.945 498.257 811.005L516.057 825.945C518.287 828.335 519.877 831.245 520.707 834.415L520.787 834.635L521.057 835.415L525.757 820.285C526.077 819.235 526.407 818.295 526.727 817.415C526.837 817.125 526.947 816.885 527.057 816.615C527.267 816.055 527.497 815.495 527.737 815.025C527.867 814.745 528.007 814.505 528.147 814.245C528.337 813.835 528.577 813.445 528.797 813.095C528.967 812.865 529.117 812.655 529.257 812.455C529.467 812.165 529.697 811.885 529.947 811.615C530.027 811.525 530.107 811.405 530.197 811.315C530.287 811.225 530.347 811.205 530.487 811.085C530.627 810.965 530.767 810.845 530.907 810.745C531.127 810.585 531.347 810.445 531.587 810.325C531.727 810.245 531.877 810.175 532.017 810.105C532.277 810.005 532.547 809.925 532.817 809.865C532.957 809.835 533.077 809.775 533.217 809.775C533.647 809.715 534.077 809.705 534.507 809.745H534.617C535.137 809.795 535.747 809.925 536.327 810.015C536.827 810.095 537.237 810.145 537.757 810.245C538.407 810.375 539.127 810.565 539.827 810.735C540.367 810.865 540.877 810.965 541.437 811.115C542.147 811.285 542.907 811.535 543.647 811.755C544.247 811.935 544.837 812.085 545.447 812.285C546.197 812.515 546.967 812.785 547.737 813.035C548.347 813.245 548.967 813.435 549.597 813.645C550.437 813.935 551.257 814.235 552.087 814.525C552.647 814.725 553.207 814.925 553.757 815.125C554.687 815.465 555.567 815.805 556.457 816.145C556.877 816.305 557.327 816.465 557.737 816.635C560.297 817.655 562.657 818.615 564.517 819.425C565.017 819.635 565.487 819.915 565.907 820.265L583.707 835.205C586.687 837.705 585.637 842.935 584.117 847.835L584.127 847.855ZM558.267 826.935C551.047 823.835 543.597 821.335 535.977 819.445C535.457 820.645 535.007 821.865 534.617 823.105L528.437 842.965C525.497 852.465 522.527 862.025 519.637 871.205C519.037 873.125 517.267 874.435 515.257 874.465C513.247 874.505 511.437 873.235 510.797 871.325L494.157 822.795L494.087 822.615C493.657 821.335 493.147 820.075 492.547 818.865C484.207 818.275 475.837 818.295 467.497 818.905C466.877 820.265 466.337 821.675 465.897 823.115C463.587 830.605 461.187 838.325 458.767 846.065C456.137 854.505 453.487 862.975 450.977 871.165C450.387 873.085 448.637 874.405 446.627 874.445H446.537C444.557 874.445 442.797 873.195 442.147 871.325C439.117 862.675 436.057 853.685 432.997 844.735C430.467 837.335 427.947 829.945 425.457 822.795C425.427 822.735 425.387 822.665 425.387 822.605C424.867 821.115 424.437 820.075 424.107 819.385C416.437 821.185 408.947 823.695 401.737 826.875C402.037 828.085 402.407 829.275 402.837 830.445C410.767 853.605 418.877 877.235 426.827 900.365L431.407 913.705C431.867 915.065 432.417 916.395 433.057 917.675C442.477 918.365 451.927 918.315 461.337 917.525C461.917 916.205 462.407 914.855 462.807 913.475C466.307 902.395 469.917 890.695 473.417 879.405L476.267 870.195C476.867 868.285 478.627 866.965 480.637 866.935C482.637 866.935 484.427 868.195 485.107 870.085C487.857 878.095 490.917 886.995 493.937 895.755L500.127 913.725C500.587 915.085 501.137 916.425 501.777 917.715C511.187 918.185 520.617 918.135 530.027 917.565C530.617 916.245 531.117 914.875 531.517 913.485C536.187 898.495 540.877 883.435 545.547 868.395L557.437 830.215C557.767 829.145 558.067 827.915 558.257 826.945L558.267 826.935Z" fill="#212121"/>
<path d="M715.007 897.385C714.927 912.835 714.847 928.815 715.007 943.765C715.237 952.185 713.367 960.525 709.577 968.035C698.117 989.455 674.867 994.285 654.577 994.285C645.147 994.155 635.737 993.345 626.417 991.875C622.557 991.645 618.827 990.465 615.537 988.425L597.737 973.485C597.737 973.485 597.677 973.395 597.637 973.355C597.187 972.955 596.807 972.485 596.527 971.965C596.437 971.815 596.367 971.665 596.297 971.505C596.027 970.875 595.877 970.185 595.877 969.495C595.817 960.465 597.177 951.485 599.917 942.875C600.187 942.245 600.577 941.665 601.047 941.175C601.107 941.115 601.137 941.015 601.197 940.955C601.347 940.815 601.497 940.675 601.657 940.555C605.077 939.085 608.847 938.615 612.527 939.185C614.717 939.305 616.837 939.405 618.877 939.475C619.587 939.525 620.227 939.525 620.917 939.525C622.217 939.555 623.537 939.605 624.767 939.605H630.177C630.917 939.585 631.597 939.545 632.307 939.525C633.167 939.495 634.057 939.465 634.877 939.415C632.907 938.165 631.027 936.785 629.247 935.295L611.447 920.355C611.307 920.245 611.197 920.115 611.067 919.995C609.757 918.865 608.497 917.675 607.317 916.415C606.977 916.055 606.637 915.705 606.317 915.335C605.037 913.915 603.837 912.425 602.737 910.855C602.667 910.745 602.607 910.635 602.537 910.535C601.537 909.055 600.627 907.505 599.817 905.915C599.597 905.485 599.377 905.065 599.167 904.605C598.327 902.875 597.617 901.095 597.037 899.265C590.577 878.125 595.847 855.145 610.877 838.945C611.417 838.375 611.987 837.795 612.527 837.275C613.057 836.755 613.637 836.315 614.187 835.825C614.897 835.175 615.617 834.535 616.357 833.935C617.237 833.225 618.127 832.575 619.057 831.935C619.847 831.395 620.597 830.845 621.377 830.355C622.317 829.765 623.297 829.245 624.277 828.715C625.067 828.285 625.857 827.835 626.667 827.455C627.677 826.985 628.717 826.585 629.767 826.185C630.577 825.875 631.387 825.525 632.217 825.255C633.297 824.905 634.407 824.645 635.517 824.365C636.337 824.155 637.147 823.915 637.977 823.755C639.147 823.525 640.337 823.405 641.527 823.255C642.317 823.155 643.107 823.015 643.917 822.955C645.247 822.855 646.597 822.895 647.947 822.895C648.627 822.895 649.297 822.865 649.987 822.895C652.057 822.995 654.117 823.215 656.157 823.565C656.417 823.125 656.727 822.715 657.087 822.355C657.137 822.295 657.167 822.235 657.217 822.185C657.267 822.135 657.337 822.105 657.387 822.065C657.627 821.855 657.877 821.675 658.137 821.515C658.267 821.435 658.377 821.355 658.517 821.285C658.957 821.065 659.427 820.905 659.907 820.825C668.667 818.945 687.727 821.155 691.447 821.615C691.997 821.675 692.527 821.825 693.027 822.045C693.177 822.125 693.317 822.215 693.457 822.315C693.707 822.435 693.937 822.585 694.157 822.745L711.957 837.685C714.457 841.045 715.547 845.245 714.997 849.385C715.177 864.925 715.087 881.455 714.997 897.395L715.007 897.385ZM687.907 882.475C687.997 866.515 688.077 850.005 687.877 834.545C687.857 833.195 687.767 831.855 687.617 830.515C679.757 829.515 671.827 829.205 663.907 829.585V829.705C663.707 830.995 662.967 832.145 661.877 832.865C660.787 833.595 659.437 833.825 658.157 833.495C643.497 829.465 627.807 834.055 617.637 845.355C604.887 859.105 600.417 878.595 605.907 896.525C612.637 918.215 638.577 927.675 657.687 922.615C659.067 922.255 660.527 922.535 661.667 923.385C662.807 924.235 663.487 925.565 663.527 926.985L663.577 928.425C664.107 932.265 663.407 936.185 661.587 939.605C661.487 939.755 661.387 939.895 661.277 940.035C655.997 946.515 646.837 947.505 639.477 948.305C638.357 948.425 637.267 948.545 636.217 948.685C628.157 949.105 620.077 949.055 612.017 948.535C611.857 948.535 611.687 948.505 611.527 948.475C610.307 948.395 609.077 948.385 607.857 948.435C606.297 954.455 605.407 960.615 605.197 966.825C606.767 967.225 608.347 967.545 609.947 967.785C639.087 971.905 670.677 972.865 683.577 948.765C686.637 942.605 688.127 935.785 687.907 928.905C687.737 913.945 687.827 897.935 687.907 882.445V882.475ZM662.707 861.805V892.335C662.707 893.085 662.527 893.825 662.177 894.495C661.707 895.385 657.157 903.325 643.497 903.325C636.867 903.325 630.687 899.975 627.077 894.415C622.327 885.925 622.187 875.605 626.707 866.995C628.837 861.435 633.287 857.085 638.897 855.075C646.107 853.255 653.727 854.205 660.277 857.715C661.777 858.525 662.707 860.105 662.697 861.805H662.707ZM653.397 884.855C653.267 885.115 653.147 885.385 653.027 885.655C652.047 887.855 651.327 890.155 650.887 892.525L651.037 892.455C651.467 892.235 651.877 891.995 652.277 891.725C652.327 891.685 652.367 891.655 652.417 891.615C652.687 891.425 652.937 891.205 653.187 890.975C653.257 890.915 653.337 890.835 653.397 890.775V884.855Z" fill="#212121"/>
<path d="M849.447 891.525C843.387 894.115 836.787 896.875 830.207 899.615L831.307 900.545C831.507 900.705 831.697 900.885 831.867 901.085C839.247 908.765 845.427 917.505 850.207 927.025C851.987 931.225 847.727 934.855 842.857 938.135C842.157 938.635 841.407 939.075 840.627 939.455C829.497 946.175 816.767 949.815 803.767 949.995C790.757 950.105 778.087 945.815 767.817 937.815C767.317 937.425 766.807 937.025 766.347 936.615L748.537 921.675C748.197 921.385 747.887 921.075 747.547 920.775C747.017 920.285 746.537 919.875 745.987 919.355C745.437 918.825 744.877 918.255 744.387 917.755C743.897 917.255 743.457 916.795 742.957 916.235C742.457 915.675 741.937 915.055 741.497 914.525C741.057 913.985 740.657 913.515 740.207 912.915C739.757 912.325 739.287 911.655 738.897 911.095C738.517 910.535 738.157 910.035 737.757 909.405C737.357 908.775 736.947 908.075 736.607 907.485C736.267 906.895 735.947 906.385 735.607 905.715C735.257 905.055 734.907 904.325 734.607 903.695C734.317 903.065 734.017 902.455 733.747 901.835C733.447 901.125 733.177 900.435 732.907 899.725C732.657 899.095 732.417 898.465 732.197 897.825C731.947 897.095 731.737 896.365 731.517 895.625C731.317 894.975 731.117 894.325 730.947 893.665C730.757 892.915 730.597 892.155 730.427 891.395C730.287 890.725 730.127 890.055 730.007 889.385C729.867 888.605 729.767 887.805 729.647 887.015C729.547 886.335 729.447 885.665 729.367 884.975C729.277 884.165 729.237 883.345 729.187 882.525C729.137 881.855 729.057 881.155 729.057 880.465V877.905C729.057 877.215 729.037 876.545 729.057 875.855C729.087 874.975 729.167 874.075 729.227 873.175C729.277 872.505 729.307 871.825 729.377 871.145C729.467 870.205 729.617 869.245 729.757 868.295C729.847 867.655 729.907 867.015 730.027 866.375C730.207 865.285 730.437 864.205 730.667 863.115C730.787 862.585 730.867 862.055 730.997 861.515C731.377 859.885 731.807 858.255 732.297 856.625C732.867 854.805 733.537 853.025 734.317 851.285C734.467 850.925 734.617 850.565 734.777 850.215C735.547 848.555 736.417 846.935 737.367 845.365C737.537 845.085 737.717 844.815 737.897 844.545C738.817 843.105 739.807 841.705 740.867 840.365C741.037 840.165 741.177 839.965 741.327 839.775C742.497 838.345 743.737 836.965 745.047 835.665C745.187 835.525 745.237 835.435 745.437 835.235C745.637 835.035 745.877 834.855 746.087 834.655C746.767 834.035 747.467 833.405 748.187 832.795C748.597 832.455 748.997 832.095 749.417 831.765C750.227 831.125 751.067 830.515 751.917 829.905C752.267 829.645 752.607 829.385 752.977 829.145C754.197 828.315 755.447 827.525 756.747 826.785C756.947 826.675 757.167 826.565 757.367 826.455C758.467 825.845 759.587 825.265 760.737 824.715C761.227 824.495 761.687 824.295 762.157 824.085C763.087 823.675 764.017 823.285 764.947 822.925C765.487 822.725 766.027 822.525 766.577 822.335C767.497 822.015 768.467 821.705 769.397 821.425C769.947 821.275 770.507 821.105 771.067 820.955C772.097 820.685 773.137 820.445 774.187 820.225C774.687 820.115 775.167 820.005 775.677 819.905C777.227 819.615 778.797 819.375 780.387 819.195C782.107 819.005 783.807 818.915 785.497 818.865H786.887C788.277 818.865 789.657 818.905 791.017 818.995C791.317 819.015 791.637 819.015 791.947 819.045C793.567 819.185 795.167 819.395 796.737 819.665C797.117 819.725 797.507 819.815 797.887 819.895C799.147 820.135 800.387 820.425 801.607 820.755C801.997 820.865 802.397 820.955 802.787 821.075C804.287 821.515 805.767 822.015 807.207 822.585C807.427 822.675 807.667 822.785 807.887 822.875C809.117 823.385 810.317 823.935 811.497 824.535C811.877 824.725 812.257 824.925 812.627 825.135C813.897 825.815 815.127 826.545 816.317 827.325L816.617 827.515C817.887 828.365 819.097 829.295 820.277 830.265C820.407 830.375 820.557 830.465 820.697 830.575L838.497 845.515C842.837 849.155 846.487 853.545 849.277 858.475L849.687 859.165C850.257 860.065 850.757 861.005 851.157 861.995C854.497 868.445 856.857 875.365 858.157 882.515C859.297 887.545 852.797 890.225 849.977 891.375C849.807 891.425 849.627 891.475 849.447 891.515V891.525ZM830.747 866.875C829.497 861.385 827.557 856.075 824.977 851.075C824.887 850.895 824.807 850.705 824.737 850.515C824.517 849.995 824.247 849.505 823.937 849.035L823.387 848.105C815.947 835.285 802.057 827.605 787.247 828.115C785.297 828.115 783.357 828.225 781.427 828.445C763.047 829.815 747.247 841.965 741.197 859.375C734.427 882.115 739.867 903.145 755.747 915.585C772.647 928.835 796.587 929.185 818.197 916.485C818.417 916.355 818.657 916.245 818.897 916.155C820.237 915.315 821.527 914.375 822.747 913.365C818.807 906.545 814.147 900.175 808.847 894.345C808.297 894.665 807.757 894.965 807.497 895.125C807.077 895.385 806.647 895.615 806.207 895.825C794.907 902.215 778.227 905.705 767.947 894.705C767.027 893.755 766.247 892.675 765.617 891.505L765.207 890.825C765.057 890.585 764.927 890.325 764.827 890.055C760.947 880.105 760.847 866.465 769.367 858.445C776.657 852.465 788.037 849.175 796.177 854.025C797.687 854.925 798.557 856.605 798.427 858.365C798.297 860.115 797.187 861.645 795.557 862.315L783.707 867.205C782.927 867.525 782.067 867.925 781.347 868.305C783.137 873.975 785.397 879.495 788.117 884.785C788.887 884.525 789.747 884.195 790.507 883.855C796.227 881.405 802.357 878.855 808.517 876.285C815.387 873.415 822.287 870.535 828.587 867.835C828.787 867.755 828.987 867.685 829.187 867.625C829.727 867.385 830.267 867.125 830.747 866.885V866.875Z" fill="#212121"/>
<path d="M972.656 928.325L972.706 928.375C962.476 937.935 949.036 943.305 935.036 943.425C932.746 943.425 930.466 943.265 928.196 942.935C921.186 942.015 914.566 939.145 909.106 934.655L891.306 919.715C891.306 919.715 891.236 919.635 891.196 919.605C889.756 918.365 888.406 917.005 887.186 915.555C886.896 915.205 886.606 914.855 886.326 914.495C885.076 912.945 883.946 911.305 882.956 909.575C879.996 904.185 878.546 898.085 878.776 891.935C878.866 888.215 878.966 884.405 879.056 880.555C879.086 879.445 879.116 878.355 879.146 877.245C879.226 874.235 879.306 871.245 879.386 868.235L879.426 866.625V865.225L866.706 854.535C866.486 854.325 866.296 854.105 866.116 853.865C866.006 853.725 865.866 853.615 865.766 853.455C865.456 852.985 865.226 852.475 865.086 851.935C862.466 843.185 862.956 822.925 863.016 820.645C863.026 819.955 863.176 819.275 863.456 818.645C863.566 818.455 863.696 818.265 863.836 818.095C864.026 817.745 864.256 817.425 864.516 817.135C864.536 817.115 864.586 817.085 864.586 817.085C865.206 816.535 865.916 816.095 866.676 815.785C866.876 815.695 867.076 815.615 867.286 815.535C868.106 815.235 868.966 814.995 869.826 814.845H869.896C870.766 814.705 871.636 814.605 872.516 814.555L873.176 814.515C873.926 814.475 874.626 814.445 875.186 814.445L879.896 814.335H880.786L881.306 795.365C881.336 794.055 881.406 792.895 881.506 791.805C881.536 791.515 881.566 791.225 881.596 790.945C881.686 790.135 881.826 789.335 882.006 788.535C882.036 788.375 882.066 788.205 882.096 788.075C882.276 787.345 882.536 786.635 882.856 785.955C882.936 785.775 883.016 785.635 883.096 785.495C883.336 785.055 883.626 784.645 883.966 784.275C884.026 784.205 884.096 784.075 884.136 784.035C884.176 783.995 884.226 783.985 884.256 783.945C884.496 783.735 884.756 783.545 885.036 783.385C885.156 783.295 885.286 783.215 885.416 783.135C885.856 782.915 886.326 782.765 886.806 782.675C896.486 780.945 917.526 783.895 918.416 784.025C918.966 784.105 919.496 784.255 919.996 784.485C920.146 784.565 920.286 784.655 920.416 784.755C920.636 784.865 920.836 784.995 921.036 785.135L938.836 800.075C941.436 802.235 941.636 807.045 941.416 811.695L940.976 821.345L951.556 830.215C952.396 830.925 952.966 831.885 953.196 832.945C955.046 841.365 955.556 850.035 954.686 858.615C954.056 862.035 951.036 863.595 943.136 864.605C942.936 864.635 941.206 864.875 939.416 865.105L938.996 865.165L938.266 881.085C938.646 880.955 938.986 880.875 939.336 880.785C939.466 880.755 939.606 880.705 939.726 880.675C940.406 880.525 941.096 880.455 941.786 880.495C941.926 880.495 942.066 880.535 942.206 880.535C942.836 880.595 943.436 880.745 944.016 880.995C944.326 881.145 944.616 881.325 944.886 881.535C945.146 881.745 945.426 881.965 945.716 882.215L963.516 897.155C969.426 902.385 974.716 908.285 979.256 914.735C979.586 915.225 979.826 915.765 979.966 916.335C980.986 920.775 975.166 926.185 972.636 928.315L972.656 928.325ZM949.016 906.245C950.156 905.185 951.226 904.055 952.216 902.855C948.756 898.275 944.886 894.015 940.656 890.125C939.686 890.555 938.736 891.045 937.826 891.585L936.026 892.545C930.846 895.815 925.006 897.905 918.926 898.675C916.566 898.805 914.266 897.945 912.586 896.285C910.906 894.635 909.996 892.345 910.096 889.985L912.106 845.885C912.196 843.825 913.646 842.075 915.646 841.585C915.756 841.565 918.146 841.225 920.426 840.925C922.106 840.715 923.726 840.505 924.036 840.455C925.436 840.275 926.936 840.015 928.046 839.755C928.266 834.025 927.876 828.295 926.886 822.645C925.726 822.585 924.236 822.535 922.906 822.585L918.186 822.725C916.886 822.785 915.626 822.275 914.736 821.335C913.826 820.415 913.346 819.155 913.406 817.865L914.376 796.295C914.446 795.135 914.436 793.825 914.376 792.785C906.626 791.705 898.806 791.265 890.986 791.465C890.816 792.795 890.716 794.135 890.686 795.475L890.036 818.895C889.976 821.355 887.996 823.345 885.536 823.415C884.816 823.435 882.446 823.485 880.166 823.535L875.476 823.635C874.416 823.655 873.256 823.745 872.296 823.845C872.086 831.525 872.496 839.215 873.506 846.835C874.596 846.805 875.946 846.705 877.146 846.545L883.936 845.655C884.136 845.635 884.336 845.615 884.536 845.615C885.686 845.615 886.796 846.045 887.656 846.815C888.666 847.725 889.226 849.035 889.186 850.395L889.106 853.045C888.756 865.665 888.366 879.435 888.066 891.925C887.886 896.395 888.886 900.825 890.966 904.785C895.276 912.485 902.996 917.665 911.756 918.735C925.176 920.265 938.596 915.855 948.476 906.645C948.636 906.485 948.816 906.345 948.996 906.215L949.016 906.245Z" fill="#212121"/>
<path d="M1110.65 934.375C1110.31 942.125 1109.22 947.035 1104.73 947.595C1102.54 947.815 1100.34 947.915 1098.13 947.895C1091.46 947.995 1084.8 947.265 1078.31 945.725C1077.65 945.505 1077.04 945.175 1076.51 944.725L1058.71 929.785C1058.64 929.725 1058.61 929.635 1058.55 929.565C1058 929.055 1057.55 928.455 1057.22 927.785C1057.2 927.755 1057.18 927.725 1057.17 927.685C1056.83 926.915 1056.58 926.105 1056.44 925.265C1056.41 925.115 1056.37 924.965 1056.35 924.795C1056.21 923.925 1056.13 923.045 1056.08 922.165L1056.05 921.565C1056.02 920.685 1056 919.795 1056 918.915C1055.76 914.755 1055.73 910.475 1055.73 905.925C1055.73 904.155 1055.69 902.345 1055.69 900.545C1055.69 899.995 1055.65 899.445 1055.65 898.895C1055.63 897.605 1055.6 896.315 1055.55 895.025C1055.52 894.345 1055.47 893.675 1055.43 892.995C1055.37 891.865 1055.3 890.745 1055.2 889.635C1055.13 888.885 1055.04 888.205 1054.96 887.495C1054.84 886.475 1054.71 885.465 1054.56 884.485C1054.51 884.215 1054.45 883.955 1054.4 883.685C1053.16 884.155 1052 884.805 1050.95 885.615C1051.21 893.015 1051.5 900.655 1051.79 908.305C1052.1 916.695 1052.42 925.075 1052.69 933.135C1053.04 939.215 1052.69 945.645 1047.54 946.485C1037.04 947.985 1026.39 948.095 1015.86 946.835C1014.98 946.695 1014.15 946.315 1013.47 945.745L995.667 930.805C995.667 930.805 995.607 930.715 995.577 930.685C995.097 930.255 994.697 929.755 994.377 929.195C994.307 929.075 994.247 928.945 994.187 928.815C993.927 928.305 993.717 927.765 993.547 927.215C993.527 927.145 993.467 927.065 993.467 926.985C993.317 926.415 993.187 925.825 993.097 925.235C993.077 925.085 993.037 924.965 993.037 924.825C992.977 924.345 992.927 923.895 992.897 923.555C992.217 898.185 991.887 872.665 991.577 847.985C991.387 832.835 991.197 817.695 990.927 802.585C990.897 801.175 990.927 799.935 990.977 798.775C990.987 798.485 991.027 798.205 991.027 797.925C991.087 796.925 991.207 795.935 991.387 794.945V794.865C991.537 794.125 991.767 793.395 992.067 792.705C992.137 792.555 992.207 792.385 992.287 792.245C992.557 791.675 992.917 791.155 993.357 790.705C993.567 790.515 993.797 790.355 994.037 790.205C994.137 790.115 994.247 790.035 994.357 789.955C994.747 789.745 995.157 789.575 995.577 789.455C1003.92 787.155 1022.55 788.795 1024.65 788.995C1025.19 789.065 1025.72 789.205 1026.22 789.425C1026.41 789.495 1026.53 789.615 1026.68 789.705C1026.95 789.835 1027.21 789.995 1027.45 790.165L1045.25 805.105C1047.01 807.035 1048 809.545 1048.04 812.165C1048.4 817.185 1048.64 822.195 1048.82 827.145C1049.12 827.185 1049.41 827.275 1049.71 827.325C1050.7 827.495 1051.68 827.705 1052.67 827.925C1053.38 828.085 1054.08 828.235 1054.78 828.415C1055.8 828.685 1056.81 829.015 1057.81 829.345C1058.46 829.555 1059.11 829.745 1059.75 829.995C1060.86 830.405 1061.93 830.895 1063 831.355C1063.53 831.585 1064.07 831.795 1064.6 832.055C1066.18 832.825 1067.73 833.655 1069.25 834.585C1070.7 835.525 1072.1 836.555 1073.43 837.655C1073.48 837.695 1073.53 837.735 1073.58 837.765L1091.39 852.705C1109.91 868.245 1110.53 895.995 1110.99 916.645V916.835C1111.1 921.855 1110.87 928.825 1110.66 934.335L1110.65 934.375ZM1083.55 919.105C1083.74 914.135 1083.98 906.975 1083.88 902.125V901.935C1083.41 880.765 1082.82 854.415 1064.31 842.485C1053.69 835.935 1040.78 834.225 1028.83 837.785C1028.64 837.845 1028.44 837.905 1028.23 837.935C1026.88 838.275 1025.44 837.985 1024.33 837.145C1023.22 836.305 1022.54 835.015 1022.49 833.625C1022.31 829.255 1022.17 824.815 1022.03 820.345C1021.8 812.995 1021.55 805.395 1021.03 798.085V798.005C1014.17 797.395 1007.26 797.395 1000.4 798.005C1000.27 799.485 1000.22 800.975 1000.26 802.455C1000.53 817.595 1000.72 832.755 1000.91 847.925C1001.22 872.575 1001.55 898.075 1002.21 923.055V923.145C1010.01 923.755 1017.85 923.625 1025.63 922.745C1025.7 921.385 1025.7 920.015 1025.63 918.645C1025.33 910.495 1025.01 902.135 1024.7 893.735C1024.39 885.345 1024.07 876.955 1023.8 868.895C1023.75 867.665 1024.2 866.475 1025.04 865.575C1029.86 860.655 1036.57 858.065 1043.45 858.475C1047.42 858.695 1051.19 860.295 1054.11 862.985C1064.92 872.265 1064.98 890.145 1065.04 905.905C1065.06 910.325 1065.07 914.505 1065.3 918.335V918.875C1065.31 920.515 1065.36 921.645 1065.42 922.435C1071.27 923.445 1077.21 923.845 1083.15 923.625C1083.34 922.315 1083.51 920.605 1083.57 919.065V919.085L1083.55 919.105Z" fill="#212121"/>
<path d="M1241.22 891.525C1235.16 894.115 1228.56 896.875 1221.98 899.615L1223.08 900.545C1223.28 900.705 1223.47 900.885 1223.64 901.085C1231.02 908.765 1237.2 917.505 1241.98 927.025C1243.76 931.225 1239.5 934.855 1234.63 938.135C1233.93 938.635 1233.18 939.075 1232.4 939.455C1221.27 946.175 1208.54 949.815 1195.54 949.995C1182.53 950.105 1169.86 945.815 1159.59 937.815C1159.09 937.425 1158.58 937.025 1158.12 936.615L1140.31 921.675C1139.97 921.385 1139.66 921.075 1139.32 920.775C1138.79 920.285 1138.31 919.875 1137.76 919.355C1137.21 918.825 1136.65 918.255 1136.16 917.755C1135.67 917.255 1135.23 916.795 1134.73 916.235C1134.23 915.675 1133.71 915.055 1133.27 914.525C1132.83 913.985 1132.43 913.515 1131.98 912.915C1131.53 912.325 1131.06 911.655 1130.67 911.095C1130.29 910.535 1129.93 910.035 1129.53 909.405C1129.13 908.775 1128.72 908.075 1128.38 907.485C1128.04 906.895 1127.72 906.385 1127.38 905.715C1127.03 905.055 1126.68 904.325 1126.38 903.695C1126.09 903.065 1125.79 902.455 1125.52 901.835C1125.22 901.125 1124.95 900.435 1124.68 899.725C1124.43 899.095 1124.19 898.465 1123.97 897.825C1123.72 897.095 1123.51 896.365 1123.29 895.625C1123.09 894.975 1122.89 894.325 1122.72 893.665C1122.53 892.915 1122.37 892.155 1122.2 891.395C1122.06 890.725 1121.9 890.055 1121.78 889.385C1121.64 888.605 1121.54 887.805 1121.42 887.015C1121.32 886.335 1121.22 885.665 1121.14 884.975C1121.05 884.165 1121.01 883.345 1120.96 882.525C1120.91 881.855 1120.83 881.155 1120.83 880.465V877.905C1120.83 877.215 1120.81 876.545 1120.83 875.855C1120.86 874.975 1120.94 874.075 1121 873.175C1121.05 872.505 1121.08 871.825 1121.15 871.145C1121.24 870.205 1121.39 869.245 1121.53 868.295C1121.62 867.655 1121.68 867.015 1121.8 866.375C1121.98 865.285 1122.21 864.205 1122.44 863.115C1122.56 862.585 1122.64 862.055 1122.77 861.515C1123.15 859.885 1123.58 858.255 1124.07 856.625C1124.64 854.805 1125.31 853.025 1126.09 851.285C1126.24 850.925 1126.39 850.565 1126.55 850.215C1127.32 848.555 1128.19 846.935 1129.14 845.365C1129.31 845.085 1129.49 844.815 1129.67 844.545C1130.59 843.105 1131.58 841.705 1132.64 840.365C1132.81 840.165 1132.95 839.965 1133.1 839.775C1134.27 838.345 1135.51 836.965 1136.82 835.665C1136.96 835.525 1137.01 835.435 1137.21 835.235C1137.41 835.035 1137.65 834.855 1137.86 834.655C1138.54 834.035 1139.24 833.405 1139.96 832.795C1140.37 832.455 1140.77 832.095 1141.19 831.765C1142 831.125 1142.84 830.515 1143.69 829.905C1144.04 829.645 1144.38 829.385 1144.75 829.145C1145.97 828.315 1147.22 827.525 1148.52 826.785C1148.72 826.675 1148.94 826.565 1149.14 826.455C1150.24 825.845 1151.36 825.265 1152.51 824.715C1153 824.495 1153.46 824.295 1153.93 824.085C1154.86 823.675 1155.79 823.285 1156.72 822.925C1157.26 822.725 1157.8 822.525 1158.35 822.335C1159.27 822.015 1160.24 821.705 1161.17 821.425C1161.72 821.275 1162.28 821.105 1162.84 820.955C1163.87 820.685 1164.91 820.445 1165.96 820.225C1166.46 820.115 1166.94 820.005 1167.45 819.905C1169 819.615 1170.57 819.375 1172.16 819.195C1173.88 819.005 1175.58 818.915 1177.27 818.865H1178.66C1180.05 818.865 1181.43 818.905 1182.79 818.995C1183.09 819.015 1183.41 819.015 1183.72 819.045C1185.34 819.185 1186.94 819.395 1188.51 819.665C1188.89 819.725 1189.28 819.815 1189.66 819.895C1190.92 820.135 1192.16 820.425 1193.38 820.755C1193.77 820.865 1194.17 820.955 1194.56 821.075C1196.06 821.515 1197.54 822.015 1198.98 822.585C1199.2 822.675 1199.44 822.785 1199.66 822.875C1200.89 823.385 1202.09 823.935 1203.27 824.535C1203.65 824.725 1204.03 824.925 1204.4 825.135C1205.67 825.815 1206.9 826.545 1208.09 827.325L1208.39 827.515C1209.66 828.365 1210.87 829.295 1212.05 830.265C1212.18 830.375 1212.33 830.465 1212.47 830.575L1230.27 845.515C1234.61 849.155 1238.26 853.545 1241.05 858.475L1241.46 859.165C1242.03 860.065 1242.53 861.005 1242.93 861.995C1246.27 868.445 1248.63 875.365 1249.93 882.515C1251.07 887.545 1244.57 890.225 1241.75 891.375C1241.58 891.425 1241.4 891.475 1241.22 891.515V891.525ZM1222.52 866.875C1221.27 861.385 1219.33 856.075 1216.75 851.075C1216.66 850.895 1216.58 850.705 1216.51 850.515C1216.29 849.995 1216.02 849.505 1215.71 849.035L1215.16 848.105C1207.72 835.285 1193.83 827.605 1179.02 828.115C1177.07 828.115 1175.13 828.225 1173.2 828.445C1154.82 829.815 1139.02 841.965 1132.97 859.375C1126.2 882.115 1131.64 903.145 1147.52 915.585C1164.42 928.835 1188.36 929.185 1209.97 916.485C1210.19 916.355 1210.43 916.245 1210.67 916.155C1212.01 915.315 1213.3 914.375 1214.52 913.365C1210.58 906.545 1205.92 900.175 1200.62 894.345C1200.07 894.665 1199.53 894.965 1199.27 895.125C1198.85 895.385 1198.42 895.615 1197.98 895.825C1186.68 902.215 1170 905.705 1159.72 894.705C1158.8 893.755 1158.02 892.675 1157.39 891.505L1156.98 890.825C1156.83 890.585 1156.7 890.325 1156.6 890.055C1152.72 880.105 1152.62 866.465 1161.14 858.445C1168.43 852.465 1179.81 849.175 1187.95 854.025C1189.46 854.925 1190.33 856.605 1190.2 858.365C1190.07 860.115 1188.96 861.645 1187.33 862.315L1175.48 867.205C1174.7 867.525 1173.84 867.925 1173.12 868.305C1174.91 873.975 1177.17 879.495 1179.89 884.785C1180.66 884.525 1181.52 884.195 1182.28 883.855C1188 881.405 1194.13 878.855 1200.29 876.285C1207.16 873.415 1214.06 870.535 1220.36 867.835C1220.56 867.755 1220.76 867.685 1220.96 867.625C1221.5 867.385 1222.04 867.125 1222.52 866.885V866.875Z" fill="#212121"/>
<path d="M1357.58 862.315C1357.43 863.075 1357.1 863.785 1356.6 864.385C1354.17 866.635 1351.02 867.935 1347.71 868.065C1346.87 868.155 1346.04 868.315 1345.22 868.525C1340.2 869.435 1335.79 872.395 1333.05 876.695C1332.92 877.075 1332.77 877.445 1332.62 877.805C1332.55 878.095 1332.46 878.375 1332.34 878.645C1331.99 880.475 1331.1 882.165 1329.78 883.485C1329.46 883.755 1329.1 883.975 1328.71 884.155C1327.11 884.825 1325.36 885.045 1323.64 884.815C1323.87 891.005 1324.14 897.585 1324.41 904.145C1324.73 911.995 1325.05 919.835 1325.3 926.985C1325.67 933.115 1325.36 939.625 1320.19 940.465C1313.33 941.465 1306.41 941.975 1299.48 941.995C1295.83 942.045 1292.17 941.795 1288.56 941.245C1287.61 941.045 1286.72 940.615 1285.98 939.995L1268.18 925.055C1268.01 924.915 1267.86 924.755 1267.72 924.595C1267.42 924.255 1267.17 923.885 1266.96 923.485C1266.91 923.395 1266.88 923.275 1266.82 923.185C1266.65 922.845 1266.49 922.495 1266.36 922.135C1266.29 921.955 1266.25 921.755 1266.19 921.565C1266.1 921.265 1265.99 920.965 1265.91 920.635C1265.85 920.415 1265.83 920.245 1265.77 919.955C1265.71 919.655 1265.63 919.315 1265.59 919.065C1265.55 918.815 1265.53 918.635 1265.49 918.345C1265.45 918.065 1265.39 917.705 1265.37 917.495C1265.35 917.285 1265.32 917.095 1265.32 916.895C1265.29 916.605 1265.24 916.305 1265.24 916.035V915.575C1265.22 915.305 1265.19 915.015 1265.19 914.775V913.805L1265.15 913.775C1264.65 901.585 1264.16 889.255 1263.68 876.895C1263.05 860.975 1262.42 845.025 1261.76 829.315C1261.7 827.875 1261.7 826.625 1261.73 825.455C1261.73 825.165 1261.76 824.865 1261.76 824.585C1261.79 822.775 1262.13 820.975 1262.76 819.285C1262.83 819.135 1262.9 818.975 1262.98 818.825C1263.25 818.245 1263.62 817.715 1264.06 817.255C1264.72 816.625 1265.54 816.175 1266.42 815.965C1275.35 813.525 1295.71 814.825 1298 814.985H1298.16C1298.52 815.015 1298.88 815.095 1299.22 815.215C1299.85 815.435 1300.44 815.765 1300.95 816.195H1300.99L1306.13 820.505C1306.6 820.345 1307.12 820.205 1307.58 820.045C1308.23 819.825 1308.88 819.605 1309.54 819.395C1310.56 819.075 1311.6 818.795 1312.66 818.525C1313.31 818.355 1313.95 818.185 1314.61 818.035C1315.78 817.765 1316.97 817.555 1318.16 817.355C1318.74 817.255 1319.3 817.135 1319.88 817.055C1321.67 816.795 1323.47 816.585 1325.29 816.465C1325.4 816.445 1325.65 816.415 1325.99 816.375L1326.35 816.345C1326.64 816.315 1326.95 816.265 1327.34 816.265C1327.54 816.235 1327.76 816.235 1327.98 816.235C1328.36 816.205 1328.75 816.205 1329.17 816.205H1329.99C1330.42 816.205 1330.86 816.245 1331.32 816.275C1331.61 816.305 1331.9 816.325 1332.19 816.355C1332.68 816.405 1333.17 816.495 1333.64 816.595C1333.9 816.645 1334.17 816.685 1334.43 816.745C1335.03 816.895 1335.62 817.085 1336.19 817.325C1336.3 817.375 1336.42 817.395 1336.52 817.445C1337.11 817.705 1337.66 818.045 1338.16 818.455L1355.97 833.395C1356.58 833.895 1357.07 834.535 1357.39 835.255C1357.52 835.565 1357.62 835.885 1357.68 836.215C1358.96 844.885 1358.93 853.695 1357.58 862.345V862.315ZM1331.12 825.635C1329.49 825.505 1327.86 825.505 1326.23 825.635C1317.72 826.065 1309.43 828.475 1302.02 832.675C1300.76 833.445 1299.2 833.565 1297.84 833.005C1296.48 832.445 1295.46 831.275 1295.1 829.845C1294.99 829.255 1294.93 828.665 1294.91 828.065C1294.81 826.165 1294.7 824.885 1294.58 824.015C1286.75 823.465 1278.88 823.595 1271.08 824.405C1270.98 825.895 1270.96 827.385 1271.02 828.865C1271.68 844.585 1272.31 860.545 1272.94 876.475C1273.43 888.825 1273.91 901.155 1274.41 913.335V913.715C1274.47 914.965 1274.6 916.205 1274.79 917.435C1282.63 917.945 1290.49 917.695 1298.28 916.705C1298.36 915.285 1298.36 913.865 1298.28 912.455C1298.02 905.215 1297.7 897.395 1297.38 889.545C1297.04 881.055 1296.69 872.505 1296.42 864.785C1296.38 863.555 1296.82 862.355 1297.66 861.455C1298.5 860.555 1299.67 860.025 1300.9 859.975C1302.39 859.975 1303.87 860.105 1305.33 860.375L1305.86 860.465C1306 860.015 1306.17 859.575 1306.36 859.135C1306.46 858.805 1306.59 858.475 1306.73 858.155C1310.37 851.165 1316.99 846.215 1324.71 844.705C1325.94 844.345 1327.19 844.075 1328.46 843.905C1329.15 843.805 1330.21 843.635 1331.03 843.445C1331.65 837.535 1331.68 831.575 1331.11 825.655L1331.12 825.635Z" fill="#212121"/>
</svg>
